<svg xmlns="http://www.w3.org/2000/svg" width="44" height="44" viewBox="0 0 44 44">
  <g id="Group_9733" data-name="Group 9733" transform="translate(-309 -324)">
    <g id="Group_9696" data-name="Group 9696" transform="translate(309 323.891)">
      <circle id="Ellipse_4" data-name="Ellipse 4" cx="22" cy="22" r="22" transform="translate(0 0.109)" fill="#fc531c" opacity="0.12"/>
    </g>
    <g id="user_3_" data-name="user (3)" transform="translate(321 335.254)">
      <path id="Path_59" data-name="Path 59" d="M92.637,11.211A5.424,5.424,0,0,0,96.6,9.569a5.424,5.424,0,0,0,1.642-3.963A5.424,5.424,0,0,0,96.6,1.642a5.6,5.6,0,0,0-7.927,0,5.424,5.424,0,0,0-1.642,3.963,5.424,5.424,0,0,0,1.642,3.964A5.426,5.426,0,0,0,92.637,11.211Zm-3-8.6a4.24,4.24,0,0,1,6,0,4.053,4.053,0,0,1,1.243,3,4.052,4.052,0,0,1-1.243,3,4.24,4.24,0,0,1-6,0,4.052,4.052,0,0,1-1.243-3A4.052,4.052,0,0,1,89.638,2.607Zm0,0" transform="translate(-83.076 0)" fill="#fc531c"/>
      <path id="Path_60" data-name="Path 60" d="M19.37,253.97a13.848,13.848,0,0,0-.189-1.471,11.585,11.585,0,0,0-.362-1.479,7.3,7.3,0,0,0-.608-1.379,5.2,5.2,0,0,0-.916-1.194,4.04,4.04,0,0,0-1.317-.827,4.549,4.549,0,0,0-1.681-.3,1.706,1.706,0,0,0-.911.386c-.273.178-.593.384-.949.612a5.441,5.441,0,0,1-1.228.541,4.768,4.768,0,0,1-3,0,5.424,5.424,0,0,1-1.227-.541c-.353-.226-.673-.432-.95-.612a1.7,1.7,0,0,0-.911-.386,4.545,4.545,0,0,0-1.681.3,4.038,4.038,0,0,0-1.317.827,5.2,5.2,0,0,0-.916,1.194A7.318,7.318,0,0,0,.6,251.021,11.612,11.612,0,0,0,.235,252.5a13.751,13.751,0,0,0-.189,1.471c-.031.444-.047.907-.047,1.374a3.864,3.864,0,0,0,1.148,2.924,4.131,4.131,0,0,0,2.958,1.079H15.311a4.132,4.132,0,0,0,2.957-1.079,3.863,3.863,0,0,0,1.148-2.924c0-.469-.016-.931-.047-1.375Zm-2.041,3.31a2.782,2.782,0,0,1-2.017.7H4.105a2.782,2.782,0,0,1-2.017-.7,2.524,2.524,0,0,1-.724-1.936c0-.436.014-.867.043-1.28a12.4,12.4,0,0,1,.17-1.324,10.241,10.241,0,0,1,.318-1.3,5.957,5.957,0,0,1,.495-1.121,3.854,3.854,0,0,1,.673-.883,2.68,2.68,0,0,1,.876-.545,3.139,3.139,0,0,1,1.074-.207c.048.025.133.074.271.164.28.183.6.391.961.619a6.756,6.756,0,0,0,1.541.689,6.131,6.131,0,0,0,3.843,0,6.766,6.766,0,0,0,1.542-.689c.366-.234.68-.436.96-.619.138-.09.223-.138.271-.164a3.141,3.141,0,0,1,1.074.207,2.685,2.685,0,0,1,.876.545,3.844,3.844,0,0,1,.673.883,5.937,5.937,0,0,1,.495,1.121,10.22,10.22,0,0,1,.318,1.3,12.506,12.506,0,0,1,.17,1.325h0c.029.412.044.842.044,1.28a2.524,2.524,0,0,1-.724,1.936Zm0,0" transform="translate(0 -236.074)" fill="#fc531c"/>
    </g>
  </g>
</svg>
