<svg xmlns="http://www.w3.org/2000/svg" xmlns:xlink="http://www.w3.org/1999/xlink" width="200" height="200" viewBox="0 0 200 200">
  <defs>
    <clipPath id="clip-path">
      <rect id="Rectangle_3370" data-name="Rectangle 3370" width="200" height="200" transform="translate(74 330)"/>
    </clipPath>
  </defs>
  <g id="Mask_Group_704" data-name="Mask Group 704" transform="translate(-74 -330)" clip-path="url(#clip-path)">
    <g id="car-service" transform="translate(73.999 333.226)">
      <path id="Path_4690" data-name="Path 4690" d="M.774,47.226h200v6.452H.774Z" transform="translate(-0.774 139.871)"/>
      <circle id="Ellipse_224" data-name="Ellipse 224" cx="6.452" cy="6.452" r="6.452" transform="translate(45.161 154.839)"/>
      <path id="Path_4691" data-name="Path 4691" d="M27.871,36.387A19.355,19.355,0,1,0,47.226,55.742,19.374,19.374,0,0,0,27.871,36.387Zm0,32.258a12.9,12.9,0,1,1,12.9-12.9A12.916,12.916,0,0,1,27.871,68.645Z" transform="translate(23.742 105.548)"/>
      <circle id="Ellipse_225" data-name="Ellipse 225" cx="6.452" cy="6.452" r="6.452" transform="translate(141.935 154.839)"/>
      <path id="Path_4692" data-name="Path 4692" d="M51.1,36.387A19.355,19.355,0,1,0,70.452,55.742,19.374,19.374,0,0,0,51.1,36.387Zm0,32.258A12.9,12.9,0,1,1,64,55.742,12.916,12.916,0,0,1,51.1,68.645Z" transform="translate(97.29 105.548)"/>
      <path id="Path_4693" data-name="Path 4693" d="M4.177,73.993H12a3.225,3.225,0,0,1,3.226,3.226v12.9A3.225,3.225,0,0,1,12,93.347H2.323v9.677a3.229,3.229,0,0,0,3.226,3.226H21.9a25.784,25.784,0,0,1,51.168,0h45.61a25.784,25.784,0,0,1,51.168,0h16.348a3.229,3.229,0,0,0,3.226-3.226V99.8h-9.677a3.225,3.225,0,0,1-3.226-3.226V66.309L165.4,60.747a3.2,3.2,0,0,1-1.113-.919l-4.777-6.213a57.183,57.183,0,0,1-8.258,2.613l2.106,3.01a3.23,3.23,0,0,1-2.645,5.077H60.387a3.224,3.224,0,0,1-2.642-5.074l19.69-28.132a12.9,12.9,0,0,1,8.523-5.319,57.417,57.417,0,0,1-2.729-6.371,16.067,16.067,0,0,0-9.965,6.029L46.816,59.828a3.232,3.232,0,0,1-1.881,1.187L12.523,67.963a12.913,12.913,0,0,0-8.345,6.029Zm136.855-3.226h12.9v6.452h-12.9Zm-45.161,0h12.9v6.452h-12.9Z" transform="translate(4.129 51.814)"/>
      <path id="Path_4694" data-name="Path 4694" d="M74.065,105.548A51.613,51.613,0,1,0,22.452,53.935,51.673,51.673,0,0,0,74.065,105.548ZM41.806,44.258A16.138,16.138,0,0,1,51.484,29.5V12A3.225,3.225,0,0,1,54.71,8.774h12.9A3.225,3.225,0,0,1,70.839,12V28.129H86.968a3.217,3.217,0,0,1,2.281.945L105.377,45.2a3.212,3.212,0,0,1,.945,2.281V82.968a9.689,9.689,0,0,1-9.677,9.677H51.484a9.689,9.689,0,0,1-9.677-9.677Z" transform="translate(67.871 -2.323)"/>
      <path id="Path_4695" data-name="Path 4695" d="M41.548,28.934l-.264-.381a58.257,58.257,0,0,1-6.445.381Z" transform="translate(107.097 80.743)"/>
      <path id="Path_4696" data-name="Path 4696" d="M27.871,34.617H56.9a57.607,57.607,0,0,1-29.032-7.858Z" transform="translate(85.032 75.06)"/>
      <path id="Path_4697" data-name="Path 4697" d="M30.968,5.419h6.452v12.9H30.968Z" transform="translate(94.839 7.484)"/>
      <path id="Path_4698" data-name="Path 4698" d="M31.871,61.677H77.032a3.229,3.229,0,0,0,3.226-3.226V24.3L66.019,10.065h-27.7a9.689,9.689,0,0,0-9.677,9.677v38.71A3.229,3.229,0,0,0,31.871,61.677ZM51.226,19.742a3.225,3.225,0,0,1,3.226-3.226H60.9a3.217,3.217,0,0,1,2.281.945l9.677,9.677a3.211,3.211,0,0,1,.945,2.281v12.9a3.225,3.225,0,0,1-3.226,3.226H54.452a3.225,3.225,0,0,1-3.226-3.226Z" transform="translate(87.484 22.194)"/>
      <path id="Path_4699" data-name="Path 4699" d="M45.29,20.948,37.5,13.161h-1.89V29.29H45.29Z" transform="translate(109.548 32)"/>
      <path id="Path_4700" data-name="Path 4700" d="M2.335,34.064c0,.045-.013.09-.013.135v6.316H8.774V34.064Z" transform="translate(4.129 98.194)"/>
      <path id="Path_4701" data-name="Path 4701" d="M52.129,55.259V34.672l-6.452-3.226V55.259Z" transform="translate(141.419 89.902)"/>
      <path id="Path_4702" data-name="Path 4702" d="M40.725,22.452H39.17A6.443,6.443,0,0,0,33.886,25.2L17.745,48.258H53.486V36.052A58.44,58.44,0,0,1,40.725,22.452Z" transform="translate(52.965 61.419)"/>
      <path id="Path_4703" data-name="Path 4703" d="M15.871,43.1a9.677,9.677,0,0,0,9.677-9.677V30.194L15.871,10.839,6.194,30.194v3.226A9.677,9.677,0,0,0,15.871,43.1Z" transform="translate(16.387 24.645)"/>
      <path id="Path_4704" data-name="Path 4704" d="M13.489,71.478a19.231,19.231,0,0,1,1.923-.594l5.332-1.142,6.281-20.929L42.253,65.129l4.406-.945,1.6-2.077L5.7,16.5l-4.716,4.4L21.931,43.352Z" transform="translate(-0.115 42.584)"/>
    </g>
  </g>
</svg>
