<svg xmlns="http://www.w3.org/2000/svg" xmlns:xlink="http://www.w3.org/1999/xlink" width="200" height="200" viewBox="0 0 200 200">
  <defs>
    <clipPath id="clip-path">
      <rect id="Rectangle_3382" data-name="Rectangle 3382" width="200" height="200" transform="translate(253 108)"/>
    </clipPath>
  </defs>
  <g id="Mask_Group_707" data-name="Mask Group 707" transform="translate(-253 -108)" clip-path="url(#clip-path)">
    <g id="fashion" transform="translate(270.327 108)">
      <path id="Path_4717" data-name="Path 4717" d="M32.7,25.378a17.27,17.27,0,0,0,16.9-13.792H15.807A17.27,17.27,0,0,0,32.7,25.378Z" transform="translate(22.471 29.802)"/>
      <path id="Path_4718" data-name="Path 4718" d="M41.239,63.307a3.448,3.448,0,1,1,6.9,0v72.41H61.928V70.462L54.26,19.272a10.329,10.329,0,0,0-10-7.686H44.2L42.441,23.007A13.055,13.055,0,0,1,31.385,34.095,13.294,13.294,0,0,1,24,33.19v95.631H41.239Z" transform="translate(48.411 29.802)"/>
      <path id="Path_4719" data-name="Path 4719" d="M19.454,27.279a6.207,6.207,0,0,0,6.1-2.488,24.083,24.083,0,0,1-6.438-13.205H12.55l1.595,10.371A6.2,6.2,0,0,0,19.454,27.279Z" transform="translate(12.158 29.802)"/>
      <path id="Path_4720" data-name="Path 4720" d="M37.164,34.093A13.055,13.055,0,0,1,26.108,23.007L24.35,11.586h-.066a10.329,10.329,0,0,0-10,7.686L6.62,70.462v65.255H20.413V63.307a3.448,3.448,0,1,1,6.9,0v65.514H44.549V33.188a13.29,13.29,0,0,1-7.386.9Z" transform="translate(-6.62 29.802)"/>
      <path id="Path_4721" data-name="Path 4721" d="M17.378,15.99v91.986H38.067V15.99A24.075,24.075,0,0,1,17.378,15.99Z" transform="translate(27.447 43.75)"/>
      <path id="Path_4722" data-name="Path 4722" d="M30.155,27.279a6.2,6.2,0,0,0,5.308-5.323l1.595-10.371H30.488A24.083,24.083,0,0,1,24.05,24.791,6.207,6.207,0,0,0,30.155,27.279Z" transform="translate(48.573 29.802)"/>
      <path id="Path_4723" data-name="Path 4723" d="M55.561,59.21a3.441,3.441,0,0,1,.038.511v68.962a3.448,3.448,0,0,1-3.448,3.448H31.463a3.426,3.426,0,0,1-2-.646l-1.283,28.231H62.5V14.9H48.923Z" transform="translate(61.636 40.284)"/>
      <path id="Path_4724" data-name="Path 4724" d="M35.169,18.074l.061.408H84.316v-6.9H32.173A17.226,17.226,0,0,1,35.1,17.749Q35.144,17.91,35.169,18.074Z" transform="translate(74.296 29.802)"/>
      <path id="Path_4725" data-name="Path 4725" d="M53.83,21.348A28.481,28.481,0,0,1,52.149,14.9H38.067v144.82H72.388L66.581,31.964C60.748,31.149,56.272,27.453,53.83,21.348Z" transform="translate(92.961 40.284)"/>
      <path id="Path_4726" data-name="Path 4726" d="M44.282,18.936c1.317,3.2,3.282,5.16,5.964,5.929L49.793,14.9h-6.67a20.472,20.472,0,0,0,1.159,4.04Z" transform="translate(108.972 40.284)"/>
      <path id="Path_4727" data-name="Path 4727" d="M58.116,36.144H45.677l-9.3-6.2-9.3,6.2H14.644L34.467,22.929a3.47,3.47,0,0,1,1.914-.578,6.9,6.9,0,1,0-6.9-6.9,3.448,3.448,0,0,1-6.9,0A13.792,13.792,0,1,1,44.156,26.838Z" transform="translate(18.789 -1.653)"/>
      <path id="Path_4728" data-name="Path 4728" d="M75.495,36.144H63.056l-9.3-6.2-9.3,6.2H32.023L51.845,22.929a3.47,3.47,0,0,1,1.914-.578,6.9,6.9,0,1,0-6.9-6.9,3.448,3.448,0,0,1-6.9,0A13.792,13.792,0,1,1,61.534,26.838Z" transform="translate(73.821 -1.653)"/>
    </g>
  </g>
</svg>
