<svg xmlns="http://www.w3.org/2000/svg" width="169.173" height="120.082" viewBox="0 0 169.173 120.082">
  <g id="Group_9730" data-name="Group 9730" transform="translate(0 0)">
    <ellipse id="Ellipse_219" data-name="Ellipse 219" cx="8.282" cy="8.326" rx="8.282" ry="8.326" transform="translate(120.155 19.701)" fill="#f2f2f2"/>
    <ellipse id="Ellipse_220" data-name="Ellipse 220" cx="11.81" cy="11.873" rx="11.81" ry="11.873" transform="translate(112.061 45.3)" fill="#f2f2f2"/>
    <ellipse id="Ellipse_221" data-name="Ellipse 221" cx="13.198" cy="13.268" rx="13.198" ry="13.268" transform="translate(116.819 79.02)" fill="#f2f2f2"/>
    <rect id="Rectangle_2139" data-name="Rectangle 2139" width="42.841" height="22.299" transform="translate(5.911 25.284)" fill="#fc531c"/>
    <rect id="Rectangle_2140" data-name="Rectangle 2140" width="169.173" height="0.393" transform="translate(0 108.558)" fill="#2f2e41"/>
    <path id="Path_15448" data-name="Path 15448" d="M628.354,389.443l2.556,9.118s-.527,8.077,1.931,6.5c2.516-1.617,1.58-8.428,1.58-8.428l-1.473-8.18Z" transform="translate(-538.789 -339.215)" fill="#ffb9b9"/>
    <path id="Path_15449" data-name="Path 15449" d="M624.472,248.422l2.111,2.111v10.058s1.242,1.863.993,2.359-.5.5-.248.869.5.621.248.869a.931.931,0,0,0,0,1.118c.248.248.745.621.372.993s-.869.124-.372,1.49,1.366,1.738,1.118,2.235a5.593,5.593,0,0,0-.248,1.738l-5.339.745-1.118-14.031Z" transform="translate(-533.542 -223.774)" fill="#d0cde1"/>
    <path id="Path_15450" data-name="Path 15450" d="M512.781,275.459l-6.209.248.248,2.608,5.464-.993Z" transform="translate(-417.628 -227.094)" fill="#3f3d56"/>
    <path id="Path_15451" data-name="Path 15451" d="M441.193,66.478l-.745,7.45,7.575,1.118.559-4.284.559-4.284Z" transform="translate(-363.114 -54.805)" fill="#ffb9b9"/>
    <path id="Path_15452" data-name="Path 15452" d="M441.193,66.478l-.745,7.45,7.575,1.118.559-4.284.559-4.284Z" transform="translate(-363.114 -54.805)" opacity="0.1"/>
    <path id="Path_15453" data-name="Path 15453" d="M469.231,376.427l4.222,9.065s.745,4.222,1.863,4.346,2.235-4.346,2.235-4.346l-1.49-2.359-1.738-6.705Z" transform="translate(-407.605 -329.303)" fill="#ffb9b9"/>
    <path id="Path_15454" data-name="Path 15454" d="M489.473,408.526,486,413.99s-3.353,52.028-2.856,51.656,2.111-.5,2.732-1.49,4.47,0,4.47,0l2.235-2.359v-1.863c0-.373,4.47-28.808,4.47-28.808v7.2s-1.366,26.449.869,26.2a50.366,50.366,0,0,0,6.829-1.738s6.581-49.42,4.594-51.283-2.856-6.084-2.856-6.084Z" transform="translate(-419.031 -353.208)" fill="#2f2e41"/>
    <circle id="Ellipse_222" data-name="Ellipse 222" cx="5.96" cy="5.96" r="5.96" transform="translate(76.278 2.173)" fill="#ffb9b9"/>
    <path id="Path_15455" data-name="Path 15455" d="M466.532,221.338l-.869-.5a14.085,14.085,0,0,0-5.091,8.444c-1.242,5.836-2.111,7.326-2.111,7.326s-1.242.248-.373,1.118.869.745.124,1.242-1.242-.5-.745.5,1.118.745.621,1.366-1.366.621-.869,1.118-.5,1.614.124,2.111.869.621.869,1.49a4.4,4.4,0,0,0,.248,1.49h6.457s-1.242-2.359-.869-2.856.5-.993.248-1.242-.993.248-.248-.373.993-.248.745-.993-.745-.373-.248-.745.869-.248.621-.621-.745-.373-.248-.621.869,0,.745-.621-.248-.373,0-.621,2.856-8.692,2.856-8.94S466.532,221.338,466.532,221.338Z" transform="translate(-397.58 -201.035)" fill="#d0cde1"/>
    <path id="Path_15456" data-name="Path 15456" d="M348.908,259.193l-7.823.5,1.987,1.863,5.464.124Z" transform="translate(-281.197 -213.684)" fill="#3f3d56"/>
    <path id="Path_15457" data-name="Path 15457" d="M509.035,420.274l-1.614,2.98A49.842,49.842,0,0,1,514,424.5c1.738.621,6.209,1.49,6.209,1.49l1.118-4.346Z" transform="translate(-439.09 -365.452)" fill="#3f3d56"/>
    <path id="Path_15458" data-name="Path 15458" d="M478.991,315.931l1.366,4.1,5.464-1.118-.621-3.849Z" transform="translate(-394.89 -259.743)" fill="#3f3d56"/>
    <path id="Path_15459" data-name="Path 15459" d="M524.259,185.483s-.372-.248-1.242.248-3.725.745-5.091-.745-2.359-2.732-2.732-2.483-.621,3.1-.621,3.1l-1.242.993-7.326,2.608.621,16.763,1.118,3.849s-.869,2.98.248,4.719a1.446,1.446,0,0,1-.621,2.359,2.29,2.29,0,0,0-.124,1.738,36.914,36.914,0,0,1-.248,5.836s10.555,4.719,21.606.621l-1.242-4.719-.621-10.555a7.688,7.688,0,0,0,.5-2.483c-.124-.745,3.725-11.175,3.725-11.175s-.621-5.215-3.849-6.333-3.725-2.235-3.725-2.235S524.88,185.979,524.259,185.483Z" transform="translate(-437.923 -169.402)" fill="#d0cde1"/>
    <path id="Path_15460" data-name="Path 15460" d="M550.4,116.938a2.733,2.733,0,0,1-.381-1.928,5.842,5.842,0,0,0,.167-1.738,17.2,17.2,0,0,1,1-2.523c.5-.9.262-1.285,1.833-1.571s.928-2.333,5.071-.119a1.215,1.215,0,0,0,1.262.476c.857-.167,1.166,1.024,1.166,1.024s.571-.333.786.143,1.742-.286,1.742,2.928a13.306,13.306,0,0,1-1.738,6.084s.127-5.406-2.705-5.953-5.88-2.142-6.618-.1A15.6,15.6,0,0,1,550.4,116.938Z" transform="translate(-474.166 -108.041)" fill="#2f2e41"/>
    <ellipse id="Ellipse_223" data-name="Ellipse 223" cx="0.559" cy="0.745" rx="0.559" ry="0.745" transform="translate(86.647 8.692)" fill="#ffb9b9"/>
    <path id="Path_15461" data-name="Path 15461" d="M571.939,729.648l.873,2.62a8.917,8.917,0,0,0,.873,3.93c.873,1.31,1.747,4.148-1.747,4.366s-5.021-1.092-5.021-1.092.655-1.747,0-2.4,0-1.965,0-1.965l.655-5.24Z" transform="translate(-487.9 -620.506)" fill="#2f2e41"/>
    <path id="Path_15462" data-name="Path 15462" d="M488.128,729.648l-.873,2.62a8.917,8.917,0,0,1-.873,3.93c-.873,1.31-1.747,4.148,1.747,4.366s5.021-1.092,5.021-1.092-.655-1.747,0-2.4,0-1.965,0-1.965l-.655-5.24Z" transform="translate(-421.1 -620.506)" fill="#2f2e41"/>
    <rect id="Rectangle_2141" data-name="Rectangle 2141" width="0.351" height="81.469" transform="translate(126.71 26.864)" fill="#3f3d56"/>
    <path id="Path_15463" data-name="Path 15463" d="M779.081,562.378a13.168,13.168,0,1,1,13.168-13.169A13.169,13.169,0,0,1,779.081,562.378Zm0-25.986A12.817,12.817,0,1,0,791.9,549.209,12.817,12.817,0,0,0,779.081,536.392Z" transform="translate(-652.195 -460.892)" fill="#3f3d56"/>
    <path id="Path_15464" data-name="Path 15464" d="M786.5,374.217a11.588,11.588,0,1,1,11.588-11.588A11.588,11.588,0,0,1,786.5,374.217Zm0-22.825a11.237,11.237,0,1,0,11.237,11.237A11.237,11.237,0,0,0,786.5,351.392Z" transform="translate(-659.615 -308.375)" fill="#3f3d56"/>
    <path id="Path_15465" data-name="Path 15465" d="M798.867,217.95A8.955,8.955,0,1,1,807.821,209,8.955,8.955,0,0,1,798.867,217.95Zm0-17.558a8.6,8.6,0,1,0,8.6,8.6A8.6,8.6,0,0,0,798.867,200.392Z" transform="translate(-671.981 -183.887)" fill="#3f3d56"/>
    <rect id="Rectangle_2142" data-name="Rectangle 2142" width="23.001" height="0.351" transform="translate(104.06 24.933)" fill="#3f3d56"/>
    <rect id="Rectangle_2143" data-name="Rectangle 2143" width="23.001" height="0.351" transform="translate(108.625 46.705)" fill="#3f3d56"/>
    <rect id="Rectangle_2144" data-name="Rectangle 2144" width="23.001" height="0.351" transform="translate(121.969 51.445)" fill="#3f3d56"/>
    <path id="Path_15466" data-name="Path 15466" d="M207.1,260.691H163.912v-22.65H207.1Zm-42.841-.351h42.49V238.392h-42.49Z" transform="translate(-155.894 -215.215)" fill="#3f3d56"/>
    <path id="Path_15467" data-name="Path 15467" d="M67.709,141.526l-21.5-11.1.161-.312,21.34,11.02,21.34-11.02.161.312Z" transform="translate(-38.095 -107.266)" fill="#3f3d56"/>
    <path id="Path_15468" data-name="Path 15468" d="M210.228,665.691l-.188-.071a10.991,10.991,0,0,1-7.069-13.109l.044-.2.188.071a10.992,10.992,0,0,1,7.069,13.109Zm-5.973-5.412a12.315,12.315,0,0,0,5.714,4.933,10.6,10.6,0,0,0-6.7-12.418,12.331,12.331,0,0,0,.982,7.485Z" transform="translate(-187.897 -556.751)" fill="#3f3d56"/>
    <path id="Path_15469" data-name="Path 15469" d="M181.627,684.609a12.563,12.563,0,0,1,4.806,6.234,10.816,10.816,0,0,1-12.564-7.559A12.562,12.562,0,0,1,181.627,684.609Z" transform="translate(-164.102 -582.17)" fill="#fc531c"/>
  </g>
</svg>
