<svg xmlns="http://www.w3.org/2000/svg" xmlns:xlink="http://www.w3.org/1999/xlink" width="20" height="20" viewBox="0 0 20 20"><defs><style>.a{fill:#e87e41;}.b{clip-path:url(#a);}</style><clipPath id="a"><rect class="a" width="20" height="20" transform="translate(26 313)"/></clipPath></defs><g class="b" transform="translate(-26 -313)"><g transform="translate(26 313)"><path class="a" d="M14.728.65a1.139,1.139,0,0,0-1.532.5L4.721,17.818A1.139,1.139,0,1,0,6.753,18.85L15.227,2.182A1.139,1.139,0,0,0,14.728.65Z"/><path class="a" d="M8.643,6.139a4.321,4.321,0,1,0-4.321,4.321A4.326,4.326,0,0,0,8.643,6.139ZM4.321,8.182A2.043,2.043,0,1,1,6.364,6.139,2.045,2.045,0,0,1,4.321,8.182Z"/><path class="a" d="M15.679,9.539A4.321,4.321,0,1,0,20,13.861,4.326,4.326,0,0,0,15.679,9.539Zm0,6.364a2.043,2.043,0,1,1,2.043-2.043A2.045,2.045,0,0,1,15.679,15.9Z"/></g></g></svg>