<svg xmlns="http://www.w3.org/2000/svg" xmlns:xlink="http://www.w3.org/1999/xlink" width="200" height="200" viewBox="0 0 200 200">
  <defs>
    <clipPath id="clip-path">
      <rect id="Rectangle_3369" data-name="Rectangle 3369" width="200" height="200" transform="translate(253 219)"/>
    </clipPath>
  </defs>
  <g id="Mask_Group_703" data-name="Mask Group 703" transform="translate(-253 -219)" clip-path="url(#clip-path)">
    <g id="beauty-treatment" transform="translate(252.999 219)">
      <path id="Path_4678" data-name="Path 4678" d="M36.249,12.015V3.47A60.662,60.662,0,0,0,23.515,5.557L27.29,13.1a66.366,66.366,0,0,1,8.958-1.089Z" transform="translate(60.18 -3.296)"/>
      <path id="Path_4679" data-name="Path 4679" d="M33.838,11.482l-3.482-6.96A60.335,60.335,0,0,0,19.2,10.607l4.767,4.768a64.911,64.911,0,0,1,9.876-3.893Z" transform="translate(46.5 0.036)"/>
      <path id="Path_4680" data-name="Path 4680" d="M27.292,10.947l-3.9-3.9c-1.005.88-2.024,1.741-2.979,2.7a60.212,60.212,0,0,0-4.33,4.893l2.683,2.683a65.622,65.622,0,0,1,8.525-6.373Z" transform="translate(36.643 8.036)"/>
      <path id="Path_4681" data-name="Path 4681" d="M41.054,5.556a61.007,61.007,0,0,0-12.768-2.1v8.6a66.777,66.777,0,0,1,8.963,1.09Z" transform="translate(75.286 -3.335)"/>
      <path id="Path_4682" data-name="Path 4682" d="M43.017,13.55c-.6-1.112-1.227-2.2-1.888-3.264l-1.77,1.77c.971,1.041,1.936,2.1,2.861,3.237C42.491,14.714,42.727,14.12,43.017,13.55Z" transform="translate(110.349 18.286)"/>
      <path id="Path_4683" data-name="Path 4683" d="M46.819,10.566a60.125,60.125,0,0,0-11.188-6.04l-3.483,6.945a64.939,64.939,0,0,1,9.872,3.893Z" transform="translate(87.517 0.047)"/>
      <path id="Path_4684" data-name="Path 4684" d="M47.332,14.635a60.347,60.347,0,0,0-7.3-7.6l-3.946,3.946a66.342,66.342,0,0,1,8.527,6.372Z" transform="translate(99.981 7.999)"/>
      <path id="Path_4685" data-name="Path 4685" d="M127.195,105.665a13.417,13.417,0,0,1-15.723-15.8l2.36-11.806c-2.023.127-4.055.205-6.092.205a96.25,96.25,0,0,1-16.416-1.4l1.228-7.038a89.605,89.605,0,0,0,22.743.919l1.643-8.219V56.368c-8.06-4.308-17.8-5.351-27.692-2.845L87.487,46.6a46.128,46.128,0,0,1,29.634,1.942A64.381,64.381,0,0,1,120,32.85a58.354,58.354,0,0,0-5.8-7.082c-.5-.528-.935-.971-1.412-1.416a59.417,59.417,0,0,0-13.7-9.994A58.015,58.015,0,0,0,84.226,8.8a60.11,60.11,0,0,0-27.393-.009,58.071,58.071,0,0,0-14.879,5.559A59.308,59.308,0,0,0,28.29,24.3c-.359.316-.536.5-.722.684-.22.223-.436.438-.628.652a59.805,59.805,0,0,0-5.919,7.219A64.411,64.411,0,0,1,23.9,48.542,46.093,46.093,0,0,1,53.531,46.6l-1.758,6.923c-9.892-2.5-19.63-1.459-27.692,2.846V62.53l1.575,7.88a90.563,90.563,0,0,0,26.384-.58l1.228,7.035a96.877,96.877,0,0,1-16.612,1.421c-3.191,0-6.369-.213-9.527-.521l2.419,12.1a13.415,13.415,0,0,1-15.723,15.8c2.808,5.143,11.569,21.188,16.727,30.558a12.666,12.666,0,0,1,.971,10c.617.74,1.213,1.492,1.872,2.21A49.574,49.574,0,0,0,50.25,160.689a50.13,50.13,0,0,0,40.527,0A49.546,49.546,0,0,0,107.6,148.463c.684-.745,1.287-1.505,1.915-2.259a12.575,12.575,0,0,1,.952-9.979c5.162-9.372,13.92-25.417,16.727-30.56ZM66.937,55.74H74.08V95.026H66.937Zm20.1,60.46-.942-.377a43.573,43.573,0,0,0-31.18,0l-.942.379-2.651-6.634.942-.376a50.829,50.829,0,0,1,36.481,0l.942.375Z" transform="translate(29.491 8.546)"/>
      <path id="Path_4686" data-name="Path 4686" d="M64.231,3.429V21.286a3.571,3.571,0,0,1-1.046,2.524A57.027,57.027,0,0,0,46.373,64.4V74.857a3.667,3.667,0,0,1-.07.7L40.768,103.24a6.275,6.275,0,0,0,12.207,2.879c.014-.05.052-.085.068-.134l-.026-.008L64.4,70.2l6.808,2.166-11.354,35.7-2.889,10.59a3.6,3.6,0,0,1-.313.771s-11.422,20.937-17.634,32.218a5.842,5.842,0,0,0,6.09,8.456,5.458,5.458,0,0,0,3.661-2.455l26.5-41.478L92.254,65.214a10.738,10.738,0,0,0,.548-3.389V3.429Z" transform="translate(107.198 -3.429)"/>
      <path id="Path_4687" data-name="Path 4687" d="M18.277,12.06,16.5,10.285c-.665,1.067-1.279,2.166-1.879,3.275.288.568.524,1.161.794,1.736.92-1.131,1.887-2.19,2.861-3.236Z" transform="translate(32.016 18.283)"/>
      <path id="Path_4688" data-name="Path 4688" d="M79.512,44.951a58.078,58.078,0,0,1-5.4,2.754,57.047,57.047,0,0,1-46.331,0,58.039,58.039,0,0,1-5.41-2.756v8.565A73.141,73.141,0,0,1,20,71.944H81.879a73.142,73.142,0,0,1-2.366-18.429Z" transform="translate(49.059 128.056)"/>
      <path id="Path_4689" data-name="Path 4689" d="M39.579,119.425a3.6,3.6,0,0,1-.312-.771l-2.889-10.59-11.353-35.7L31.833,70.2l11.38,35.775-.026.008c.016.05.054.084.068.134a6.275,6.275,0,0,0,12.207-2.881L49.926,75.557a3.666,3.666,0,0,1-.069-.7V64.4A57.028,57.028,0,0,0,33.046,23.811,3.571,3.571,0,0,1,32,21.286V3.429H3.429v58.4a10.67,10.67,0,0,0,.551,3.388l16.982,50.95,26.5,41.478a5.45,5.45,0,0,0,3.661,2.455,5.518,5.518,0,0,0,4.29-1.013,5.73,5.73,0,0,0,1.8-7.443C51,140.363,39.579,119.425,39.579,119.425Z" transform="translate(-3.429 -3.429)"/>
    </g>
  </g>
</svg>
