<svg xmlns="http://www.w3.org/2000/svg" width="40" height="40"><defs><clipPath id="a"><path data-name="Rectangle 3156" transform="translate(339 694)" fill="#fff" stroke="#707070" d="M0 0h20v20H0z"/></clipPath></defs><g data-name="Group 2204" transform="translate(-16 -264)"><rect data-name="Rectangle 2437" width="40" height="40" rx="8" transform="translate(16 264)" fill="#e87e41"/><g data-name="Mask Group 254" transform="translate(-313 -420)" clip-path="url(#a)"><g data-name="Group 743"><path data-name="Path 2601" d="M353.688 695.172a4.735 4.735 0 00-2.958 1.022 6.737 6.737 0 00-1.73 2.081 6.736 6.736 0 00-1.73-2.081 4.735 4.735 0 00-2.957-1.022c-3.029 0-5.313 2.477-5.313 5.762 0 3.549 2.849 5.977 7.163 9.653.732.624 1.563 1.332 2.426 2.086a.625.625 0 00.823 0c.863-.755 1.693-1.462 2.426-2.087 4.313-3.675 7.162-6.103 7.162-9.652 0-3.285-2.284-5.762-5.312-5.762z" fill="#fff"/></g></g></g></svg>