<svg xmlns="http://www.w3.org/2000/svg" width="299" height="82.001" viewBox="0 0 299 82.001">
  <g id="Subtraction_8" data-name="Subtraction 8" transform="translate(1258 2048)" fill="rgba(16,16,16,0.06)">
    <path d="M-1115.09-1966H-1243a14.9,14.9,0,0,1-10.607-4.393A14.9,14.9,0,0,1-1258-1981v-52a14.9,14.9,0,0,1,4.393-10.606A14.9,14.9,0,0,1-1243-2048h127.91a6.82,6.82,0,0,0,1.985,4.829,6.691,6.691,0,0,0,4.784,2,6.81,6.81,0,0,0,6.771-6.833H-974a14.9,14.9,0,0,1,10.606,4.393A14.9,14.9,0,0,1-959-2033v52a14.9,14.9,0,0,1-4.393,10.607A14.9,14.9,0,0,1-974-1966h-127.551a6.821,6.821,0,0,0-1.985-4.83,6.693,6.693,0,0,0-4.785-2,6.809,6.809,0,0,0-6.769,6.834Z" stroke="none"/>
    <path d="M -1115.573486328125 -1966.498657226563 C -1115.318481445313 -1970.310791015625 -1112.163208007813 -1973.333374023438 -1108.321166992188 -1973.333374023438 C -1106.381103515625 -1973.333374023438 -1104.555541992188 -1972.569213867188 -1103.180786132813 -1971.181640625 C -1101.92529296875 -1969.914306640625 -1101.185180664063 -1968.267211914063 -1101.067260742188 -1966.499633789063 L -973.9998168945313 -1966.499633789063 C -970.1270141601563 -1966.499633789063 -966.4859619140625 -1968.007934570313 -963.7473754882813 -1970.74658203125 C -961.0086669921875 -1973.485473632813 -959.5004272460938 -1977.126831054688 -959.5004272460938 -1981 L -959.5004272460938 -2033.000122070313 C -959.5004272460938 -2036.872924804688 -961.0086669921875 -2040.513916015625 -963.747314453125 -2043.252685546875 C -966.4859619140625 -2045.991333007813 -970.1270751953125 -2047.49951171875 -973.9998168945313 -2047.49951171875 L -1101.067260742188 -2047.49951171875 C -1101.322998046875 -2043.6884765625 -1104.478759765625 -2040.666748046875 -1108.321166992188 -2040.666748046875 C -1110.2607421875 -2040.666748046875 -1112.085815429688 -2041.430908203125 -1113.460327148438 -2042.818237304688 C -1114.715576171875 -2044.085205078125 -1115.455444335938 -2045.732055664063 -1115.573364257813 -2047.49951171875 L -1242.999877929688 -2047.49951171875 C -1246.873046875 -2047.49951171875 -1250.514526367188 -2045.991333007813 -1253.253295898438 -2043.252685546875 C -1255.991943359375 -2040.514038085938 -1257.500244140625 -2036.872924804688 -1257.500244140625 -2033.000122070313 L -1257.500244140625 -1981 C -1257.500244140625 -1977.126708984375 -1255.991943359375 -1973.4853515625 -1253.253295898438 -1970.74658203125 C -1250.514404296875 -1968.007934570313 -1246.873046875 -1966.499633789063 -1242.999877929688 -1966.499633789063 L -1115.573486328125 -1966.498657226563 M -1115.090087890625 -1965.998657226563 L -1115.091064453125 -1965.998657226563 L -1242.999877929688 -1965.999633789063 C -1247.006713867188 -1965.999633789063 -1250.773559570313 -1967.559936523438 -1253.606811523438 -1970.39306640625 C -1256.43994140625 -1973.226196289063 -1258.000244140625 -1976.9931640625 -1258.000244140625 -1981 L -1258.000244140625 -2033.000122070313 C -1258.000244140625 -2037.006469726563 -1256.43994140625 -2040.773193359375 -1253.606811523438 -2043.606201171875 C -1250.773559570313 -2046.439331054688 -1247.006591796875 -2047.99951171875 -1242.999877929688 -2047.99951171875 L -1115.090087890625 -2047.99951171875 C -1115.089599609375 -2046.176879882813 -1114.385009765625 -2044.462036132813 -1113.105102539063 -2043.170166015625 C -1111.825317382813 -2041.878295898438 -1110.126342773438 -2041.166748046875 -1108.321166992188 -2041.166748046875 C -1104.587768554688 -2041.166748046875 -1101.550537109375 -2044.23193359375 -1101.550537109375 -2047.99951171875 L -973.9998168945313 -2047.99951171875 C -969.9935302734375 -2047.99951171875 -966.2269287109375 -2046.439331054688 -963.393798828125 -2043.606201171875 C -960.5606689453125 -2040.773071289063 -959.0004272460938 -2037.006469726563 -959.0004272460938 -2033.000122070313 L -959.0004272460938 -1981 C -959.0004272460938 -1976.993286132813 -960.5606689453125 -1973.226318359375 -963.393798828125 -1970.39306640625 C -966.226806640625 -1967.559936523438 -969.9934692382813 -1965.999633789063 -973.9998168945313 -1965.999633789063 L -1101.550537109375 -1965.999633789063 C -1101.551025390625 -1967.822631835938 -1102.255859375 -1969.53759765625 -1103.536010742188 -1970.829711914063 C -1104.816162109375 -1972.121826171875 -1106.515502929688 -1972.833374023438 -1108.321166992188 -1972.833374023438 C -1112.053588867188 -1972.833374023438 -1115.090087890625 -1969.767700195313 -1115.090087890625 -1965.999633789063 L -1115.090087890625 -1965.998657226563 Z" stroke="none" fill="rgba(255,255,255,0.3)"/>
  </g>
</svg>
