<svg xmlns="http://www.w3.org/2000/svg" xmlns:xlink="http://www.w3.org/1999/xlink" width="40" height="40" viewBox="0 0 40 40">
  <defs>
    <clipPath id="clip-path">
      <rect id="Rectangle_3399" data-name="Rectangle 3399" width="20" height="20" transform="translate(26 217)" fill="#fff" stroke="#707070" stroke-width="1"/>
    </clipPath>
  </defs>
  <g id="Group_2207" data-name="Group 2207" transform="translate(-16 -207)">
    <rect id="Rectangle_2436" data-name="Rectangle 2436" width="40" height="40" rx="8" transform="translate(16 207)" fill="#e87e41"/>
    <g id="Mask_Group_714" data-name="Mask Group 714" clip-path="url(#clip-path)">
      <path id="home" d="M19.461,8.7h0L11.3.54a1.841,1.841,0,0,0-2.6,0L.543,8.693.535,8.7A1.84,1.84,0,0,0,1.76,11.839l.057,0h.325v6A2.157,2.157,0,0,0,4.3,20H7.489a.586.586,0,0,0,.586-.586V14.707a.984.984,0,0,1,.983-.983H10.94a.984.984,0,0,1,.983.983v4.707a.586.586,0,0,0,.586.586H15.7a2.157,2.157,0,0,0,2.155-2.155v-6h.3a1.841,1.841,0,0,0,1.3-3.142Zm0,0" transform="translate(26.001 217)" fill="#fff"/>
    </g>
  </g>
</svg>
