<svg xmlns="http://www.w3.org/2000/svg" width="150" height="147" viewBox="0 0 150 147">
  <g id="Group_2000" data-name="Group 2000" transform="translate(-10569 1509)">
    <text id="Joker_indirim" data-name="Joker indirim" transform="translate(10569 -1368)" fill="#FFA500" font-size="22" font-family="SegoeUI-Bold, Segoe UI" font-weight="700" letter-spacing="0.05em"><tspan x="0" y="0">Joker indirim</tspan></text>
    <path id="Path_49" data-name="Path 49" d="M4691.11,818.924a49.421,49.421,0,0,1,3.265-17.731,43.753,43.753,0,0,1,5.786-10.762,31.048,31.048,0,0,1,8.716-7.952,36.655,36.655,0,0,1,32.049-2.684,35.905,35.905,0,0,1,21.759,25.25c3.534,2.069-9.917,2.556-6.624.292a29.4,29.4,0,0,0-17.526-19.489c-11.355-4.489-25.186-1.554-32.869,8.185a36.061,36.061,0,0,0-5.336,9.818,43.029,43.029,0,0,0-2.713,15.079,41.045,41.045,0,0,0,3.673,17.509,51.074,51.074,0,0,0,10.6,14.6l28.848,28.839c8.99-8.383,11.4-10.628,15.006-13.83a34.086,34.086,0,0,0,8.251-1.706q1.381-.47,2.674-1.029c-4.147,4.159-8.336,8.295-12.52,12.428-3.2,3.164-6.393,6.32-11.119,11.039l-2.294,2.3-33.446-33.434a57.316,57.316,0,0,1-11.9-16.483,47.417,47.417,0,0,1-4.281-20.23Zm73.535,40.811A34.136,34.136,0,0,1,4720,833.159c-4.092-1.2,6.528-.358,6.528-.358s6.4,14.577,13.3,18.559a27.665,27.665,0,0,0,22.729,2.23c8.274-2.811,13.6-8.679,17.188-16.266a42.838,42.838,0,0,0,3.073-8.936,43.292,43.292,0,0,0,1.027-9.454c0-34.252-34.44-54.948-68.118-42.863a49.634,49.634,0,0,1,69.89,64.023c-4.325,9.149-10.922,16.231-20.978,19.648Z" transform="translate(5898.785 -2278.319)" fill="#FFA500"/>
    <path id="Path_390" data-name="Path 390" d="M1236.9,914.938" transform="translate(9385.297 -2360.389)" fill="none" stroke="#707070" stroke-width="2"/>
    <path id="Polygon_1" data-name="Polygon 1" d="M11.411,2.078a2,2,0,0,1,3.177,0l8.953,11.708A2,2,0,0,1,21.953,17H4.047a2,2,0,0,1-1.589-3.215Z" transform="translate(10671 -1457) rotate(180)" fill="#FFA500"/>
    <g id="Ellipse_221" data-name="Ellipse 221" transform="translate(10614 -1460)" fill="none" stroke="#FFA500" stroke-width="2">
      <circle cx="8" cy="8" r="8" stroke="none"/>
      <circle cx="8" cy="8" r="7" fill="none"/>
    </g>
    <circle id="Ellipse_222" data-name="Ellipse 222" cx="3.5" cy="3.5" r="3.5" transform="translate(10618.5 -1455.5)" fill="#FFA500"/>
  </g>
</svg>
