<svg xmlns="http://www.w3.org/2000/svg" xmlns:xlink="http://www.w3.org/1999/xlink" width="20" height="20" viewBox="0 0 20 20">
  <defs>
    <clipPath id="clip-path">
      <rect id="Rectangle_3408" data-name="Rectangle 3408" width="20" height="20" transform="translate(307 412)" fill="none" stroke="#e87e41" stroke-width="1"/>
    </clipPath>
  </defs>
  <g id="Mask_Group_716" data-name="Mask Group 716" transform="translate(-307 -412)" clip-path="url(#clip-path)">
    <g id="like" transform="translate(307 412)">
      <g id="Group_2077" data-name="Group 2077">
        <g id="Group_2076" data-name="Group 2076">
          <g id="Path_4775" data-name="Path 4775" fill="none">
            <path d="M2.083,8.75A2.086,2.086,0,0,0,0,10.833V17.5a2.086,2.086,0,0,0,2.083,2.083h2.5a2.068,2.068,0,0,0,1.25-.422V8.75Z" stroke="none"/>
            <path d="M 2.083320379257202 9.75 C 1.48598051071167 9.75 1.000000476837158 10.23598098754883 1.000000476837158 10.83332061767578 L 1.000000476837158 17.5 C 1.000000476837158 18.09733963012695 1.48598051071167 18.58332061767578 2.083320379257202 18.58332061767578 L 4.583320140838623 18.58332061767578 C 4.673762321472168 18.58332061767578 4.757220268249512 18.572021484375 4.833320140838623 18.5534496307373 L 4.833320140838623 9.75 L 2.083320379257202 9.75 M 2.083320379257202 8.75 L 5.833320140838623 8.75 L 5.833320140838623 19.16164016723633 C 5.484140396118164 19.42499923706055 5.052500247955322 19.58332061767578 4.583320140838623 19.58332061767578 L 2.083320379257202 19.58332061767578 C 0.9350004196166992 19.58332061767578 4.76837158203125e-07 18.64831924438477 4.76837158203125e-07 17.5 L 4.76837158203125e-07 10.83332061767578 C 4.76837158203125e-07 9.684999465942383 0.9350004196166992 8.75 2.083320379257202 8.75 Z" stroke="none" fill="#e87e41"/>
          </g>
        </g>
      </g>
      <g id="Group_2079" data-name="Group 2079">
        <g id="Group_2078" data-name="Group 2078">
          <g id="Path_4776" data-name="Path 4776" fill="none">
            <path d="M20,11.875a1.848,1.848,0,0,0-.542-1.312,2.069,2.069,0,0,0,.533-1.591,2.154,2.154,0,0,0-2.173-1.889H12.67a11.982,11.982,0,0,0,.663-3.333c0-1.807-1.536-3.333-2.5-3.333A2.621,2.621,0,0,0,9.322.924a.419.419,0,0,0-.156.326V4.076l-2.4,5.2-.1.051v8.932a5.46,5.46,0,0,0,2.083.493H16.4a1.917,1.917,0,0,0,1.888-1.456,1.875,1.875,0,0,0-.151-1.252,1.866,1.866,0,0,0,.834-2.5A1.865,1.865,0,0,0,20,11.875Z" stroke="none"/>
            <path d="M 16.39917945861816 17.75 C 16.83437919616699 17.75 17.22640800476074 17.46122932434082 17.31099891662598 17.07867050170898 C 17.35633850097656 16.87322998046875 17.33282852172852 16.67009925842285 17.24302864074707 16.49126052856445 L 16.79470825195313 15.59847927093506 L 17.68703842163086 15.14929008483887 C 17.98288917541504 15.00035953521729 18.16667938232422 14.70366954803467 18.16667938232422 14.375 C 18.16667938232422 14.23818016052246 18.13650894165039 14.1086597442627 18.0770092010498 13.99003982543945 L 17.6292896270752 13.09745979309082 L 18.52121925354004 12.64846992492676 C 18.81653785705566 12.49980926513672 18.99999809265137 12.20342922210693 18.99999809265137 11.875 C 18.99999809265137 11.64610004425049 18.91134834289551 11.43138980865479 18.75038909912109 11.27042961120605 L 18.0743579864502 10.59439945220947 L 18.7193489074707 9.888679504394531 C 18.92507934570313 9.663579940795898 19.02295875549316 9.37045955657959 18.99502944946289 9.064159393310547 C 18.94523811340332 8.523329734802246 18.4170093536377 8.083319664001465 17.8174991607666 8.083319664001465 L 12.66999912261963 8.083319664001465 L 11.28776836395264 8.083319664001465 L 11.72019863128662 6.770469665527344 C 12.10984897613525 5.587499618530273 12.33331871032715 4.486579895019531 12.33331871032715 3.749999761581421 C 12.33331871032715 3.181719779968262 12.10187911987305 2.570169687271118 11.69833850860596 2.072149753570557 C 11.30663871765137 1.588739633560181 10.92519855499268 1.422489643096924 10.83331871032715 1.416679739952087 C 10.56403255462646 1.416679739952087 10.32915496826172 1.49938702583313 10.1666784286499 1.57803201675415 L 10.1666784286499 4.075819492340088 L 10.1666784286499 4.29548978805542 L 10.07460880279541 4.494929790496826 L 7.674608707427979 9.694109916687012 L 7.666678905487061 9.711289405822754 L 7.666678905487061 17.56728363037109 C 8.073389053344727 17.68702125549316 8.484061241149902 17.75 8.749999046325684 17.75 L 16.39917945861816 17.75 M 16.39917945861816 18.75 L 8.749999046325684 18.75 C 8.20331859588623 18.75 7.344998836517334 18.57749938964844 6.666678905487061 18.25749969482422 L 6.666678905487061 9.325819969177246 L 6.766678810119629 9.274999618530273 L 9.166678428649902 4.075819492340088 L 9.166678428649902 1.249999642372131 C 9.166678428649902 1.123359680175781 9.224178314208984 1.00335967540741 9.322498321533203 0.9241796731948853 C 9.349139213562012 0.9041796922683716 9.967498779296875 0.4166796803474426 10.83331871032715 0.4166796803474426 C 11.79749870300293 0.4166796803474426 13.33331871032715 1.94249963760376 13.33331871032715 3.749999761581421 C 13.33331871032715 4.889999866485596 12.92499923706055 6.309139728546143 12.66999912261963 7.083319664001465 L 17.8174991607666 7.083319664001465 C 18.93913841247559 7.083319664001465 19.89331817626953 7.91331958770752 19.99081802368164 8.972499847412109 C 20.04499816894531 9.56663990020752 19.8466796875 10.13749980926514 19.45749855041504 10.56332015991211 C 19.80167961120605 10.90749931335449 19.99999809265137 11.37417984008789 19.99999809265137 11.875 C 19.99999809265137 12.59749984741211 19.58667945861816 13.23167991638184 18.97085952758789 13.54167938232422 C 19.09917831420898 13.79749965667725 19.16667938232422 14.07999992370605 19.16667938232422 14.375 C 19.16667938232422 15.09832000732422 18.75249862670898 15.73250007629395 18.13667869567871 16.04249954223633 C 18.32749938964844 16.42250061035156 18.3833179473877 16.86000061035156 18.28749847412109 17.29417991638184 C 18.10085868835449 18.13831901550293 17.30667877197266 18.75 16.39917945861816 18.75 Z" stroke="none" fill="#e87e41"/>
          </g>
        </g>
      </g>
    </g>
  </g>
</svg>
