<svg id="location" xmlns="http://www.w3.org/2000/svg" width="22.5" height="22.5" viewBox="0 0 22.5 22.5">
  <path id="Path_15471" data-name="Path 15471" d="M89.078,19.21a21.418,21.418,0,0,0,9.953,0c1.637-.462,2.467-1.132,2.467-1.99s-.83-1.527-2.467-1.99a15.521,15.521,0,0,0-2.59-.468c1.879-3.207,3.741-6.839,3.741-8.635a6.128,6.128,0,0,0-12.255,0c0,1.8,1.862,5.428,3.741,8.635a15.515,15.515,0,0,0-2.59.468c-1.637.462-2.467,1.132-2.467,1.99S87.441,18.747,89.078,19.21ZM94.055,1.318a4.815,4.815,0,0,1,4.809,4.809c0,1.362-1.685,4.933-4.508,9.552a.353.353,0,0,1-.6,0c-2.823-4.619-4.508-8.189-4.508-9.552A4.815,4.815,0,0,1,94.055,1.318ZM89.676,16.435a16.024,16.024,0,0,1,2.743-.414l.21.345a1.671,1.671,0,0,0,2.852,0l.21-.345a16.024,16.024,0,0,1,2.743.414,3.366,3.366,0,0,1,1.735.785,3.365,3.365,0,0,1-1.735.785,18.5,18.5,0,0,1-4.379.472,18.5,18.5,0,0,1-4.379-.472,3.365,3.365,0,0,1-1.735-.785A3.367,3.367,0,0,1,89.676,16.435Z" transform="translate(-82.805)"/>
  <path id="Path_15472" data-name="Path 15472" d="M20.581,357.2a.659.659,0,0,0-.635,1.155c.785.431,1.236.91,1.236,1.312,0,.492-.7,1.255-2.655,1.92A23.538,23.538,0,0,1,11.25,362.6a23.538,23.538,0,0,1-7.277-1.019c-1.957-.665-2.655-1.428-2.655-1.92,0-.4.45-.881,1.236-1.312a.659.659,0,0,0-.635-1.155A3.136,3.136,0,0,0,0,359.664c0,.9.616,2.172,3.549,3.168a24.868,24.868,0,0,0,7.7,1.089,24.868,24.868,0,0,0,7.7-1.089c2.933-1,3.549-2.273,3.549-3.168A3.135,3.135,0,0,0,20.581,357.2Z" transform="translate(0 -341.421)" fill="#1275a5"/>
  <path id="Path_15473" data-name="Path 15473" d="M204.879,76.283a2.463,2.463,0,1,0-2.463,2.463A2.466,2.466,0,0,0,204.879,76.283Zm-3.608,0a1.145,1.145,0,1,1,1.145,1.145A1.146,1.146,0,0,1,201.271,76.283Z" transform="translate(-191.166 -70.576)" fill="#1275a5"/>
</svg>
