<svg xmlns="http://www.w3.org/2000/svg" width="44" height="44" viewBox="0 0 44 44">
  <g id="Group_511" data-name="Group 511" transform="translate(-309 -669)">
    <g id="Group_181" data-name="Group 181" transform="translate(216.26 169.26)">
      <circle id="Ellipse_4" data-name="Ellipse 4" cx="22" cy="22" r="22" transform="translate(92.74 499.74)" fill="#101010" opacity="0.12"/>
    </g>
    <g id="logout_1_" data-name="logout (1)" transform="translate(321 682.117)">
      <path id="Path_4264" data-name="Path 4264" d="M285.94,209.268h-7.978a.63.63,0,0,1,0-1.26h7.978a.63.63,0,0,1,0,1.26Zm0,0" transform="translate(-266.415 -199.82)" fill="#101010"/>
      <path id="Path_4265" data-name="Path 4265" d="M400.634,135.529a.63.63,0,0,1-.445-1.076l2.7-2.7-2.7-2.7a.63.63,0,0,1,.891-.891l3.149,3.149a.63.63,0,0,1,0,.891l-3.149,3.149A.626.626,0,0,1,400.634,135.529Zm0,0" transform="translate(-384.258 -122.933)" fill="#101010"/>
      <path id="Path_4266" data-name="Path 4266" d="M6.718,20.163a1.731,1.731,0,0,1-.521-.078L1.143,18.4A1.7,1.7,0,0,1,0,16.8V1.688A1.681,1.681,0,0,1,1.679.008,1.732,1.732,0,0,1,2.2.086L7.254,1.77A1.7,1.7,0,0,1,8.4,3.367V18.483a1.681,1.681,0,0,1-1.679,1.68ZM1.679,1.268a.421.421,0,0,0-.42.42V16.8a.436.436,0,0,0,.291.4l5.03,1.676a.456.456,0,0,0,.137.018.421.421,0,0,0,.42-.42V3.367a.436.436,0,0,0-.291-.4L1.816,1.286a.456.456,0,0,0-.137-.018Zm0,0" transform="translate(0 -0.008)" fill="#101010"/>
      <path id="Path_4267" data-name="Path 4267" d="M38.425,6.726a.63.63,0,0,1-.63-.63V2.317a1.051,1.051,0,0,0-1.05-1.05H27.3a.63.63,0,1,1,0-1.26h9.448a2.311,2.311,0,0,1,2.309,2.309V6.1A.63.63,0,0,1,38.425,6.726Zm0,0" transform="translate(-25.618 -0.008)" fill="#101010"/>
      <path id="Path_4268" data-name="Path 4268" d="M185.321,284.058h-3.359a.63.63,0,0,1,0-1.26h3.359a1.051,1.051,0,0,0,1.05-1.05V277.97a.63.63,0,0,1,1.26,0v3.779A2.311,2.311,0,0,1,185.321,284.058Zm0,0" transform="translate(-174.194 -266.423)" fill="#101010"/>
    </g>
  </g>
</svg>
