<svg xmlns="http://www.w3.org/2000/svg" width="109.409" height="91.229" viewBox="0 0 109.409 91.229">
  <g id="Group_9733" data-name="Group 9733" transform="translate(-112.591 -37.298)">
    <g id="Group_1" data-name="Group 1" transform="matrix(0.788, 0.616, -0.616, 0.788, 138.791, 37.298)">
      <path id="Subtraction_1" data-name="Subtraction 1" d="M7.78,42.556h0L0,19.96,43.812,4.875a2.155,2.155,0,0,0,4.048-1.03,2.177,2.177,0,0,0-.029-.354L57.97,0l7.78,22.6L55.524,26.116a2.155,2.155,0,0,0-4.065,1.4L7.78,42.556Z" transform="translate(0 0)" fill="#ffc000"/>
      <text id="_" data-name="%" transform="translate(21.243 30.368) rotate(-18)" fill="#101010" font-size="14" font-family="SegoeUI-Bold, Segoe UI" font-weight="700" letter-spacing="0.395em"><tspan x="0" y="0">%</tspan></text>
      <line id="Line_1" data-name="Line 1" x2="5.892" y2="17.111" transform="translate(45.397 8.156)" opacity="0.59" stroke="#fff" stroke-linecap="round" stroke-width="2" stroke-dasharray="5" fill="none"/>
    </g>
    <g id="Group_3563" data-name="Group 3563" transform="translate(123.145 87.288) rotate(6)">
      <path id="Subtraction_1-2" data-name="Subtraction 1" d="M6.522,35.673h0L0,16.732,36.727,4.087a1.807,1.807,0,0,0,3.393-.864,1.825,1.825,0,0,0-.024-.3L48.595,0l6.522,18.941-8.572,2.952a1.807,1.807,0,0,0-3.408,1.173L6.522,35.673Z" transform="translate(0 0)" fill="#ffc000"/>
      <text id="_2" data-name="%" transform="translate(16.909 26.82) rotate(-18)" fill="#101010" font-size="13" font-family="SegoeUI-Bold, Segoe UI" font-weight="700" letter-spacing="0.395em"><tspan x="0" y="0">%</tspan></text>
      <line id="Line_1-2" data-name="Line 1" x2="4.939" y2="14.344" transform="translate(39.392 6.542)" opacity="0.59" stroke="#fff" stroke-linecap="round" stroke-width="1.5" stroke-dasharray="3" fill="none"/>
    </g>
    <g id="Ellipse_205" data-name="Ellipse 205" transform="translate(167 70)" fill="#fff" stroke="#ffc000" stroke-width="1">
      <ellipse cx="27.5" cy="28" rx="27.5" ry="28" stroke="none"/>
      <ellipse cx="27.5" cy="28" rx="27" ry="27.5" fill="none"/>
    </g>
    <g id="joker" transform="translate(174.125 77.223)">
      <path id="Path_5417" data-name="Path 5417" d="M250.595,360.093a.706.706,0,0,0,.949-.308,1.593,1.593,0,0,1,2.976,0,.706.706,0,1,0,1.261-.635,3,3,0,0,0-5.5,0A.705.705,0,0,0,250.595,360.093Zm0,0" transform="translate(-236.797 -338.291)" fill="#fc531c"/>
      <path id="Path_5418" data-name="Path 5418" d="M95.88,250.941c-2.869,0-3.749,1.2-4.038,1.588a.706.706,0,1,0,1.138.837c.184-.251.745-1.014,2.9-1.014a.706.706,0,0,0,0-1.412Zm0,0" transform="translate(-86.705 -237.531)" fill="#007c40"/>
      <path id="Path_5419" data-name="Path 5419" d="M251.451,503.707a17.644,17.644,0,0,1-13.594,0,.706.706,0,0,0-.654,1.242c.039.027,3.922,2.66,3.922,5.766,0,1.854,1.775,2.823,3.53,2.823s3.529-.969,3.529-2.823c0-3.106,3.882-5.739,3.922-5.766a.706.706,0,0,0-.654-1.242Zm-4.68,7.009c0,1.117-1.385,1.412-2.117,1.412s-2.118-.295-2.118-1.412a7.467,7.467,0,0,0-2.106-4.761,17.227,17.227,0,0,0,8.448,0A7.466,7.466,0,0,0,246.772,510.716Zm0,0" transform="translate(-224.185 -476.835)" fill="#fc531c"/>
      <path id="Path_5420" data-name="Path 5420" d="M410.161,360.093a.706.706,0,0,0,.949-.308,1.589,1.589,0,0,1,2.97,0,.706.706,0,0,0,1.264-.631,3,3,0,0,0-5.5,0A.706.706,0,0,0,410.161,360.093Zm0,0" transform="translate(-387.893 -338.291)" fill="#fc531c"/>
      <path id="Path_5421" data-name="Path 5421" d="M583.448,250.941a.706.706,0,1,0,0,1.412c2.156,0,2.716.762,2.9,1.014a.706.706,0,1,0,1.137-.837C587.2,252.136,586.318,250.941,583.448,250.941Zm0,0" transform="translate(-551.684 -237.531)" fill="#ed8a5a"/>
      <path id="Path_5422" data-name="Path 5422" d="M36.5,22.4c.506-2,1.559-7.438-.918-10.818-1.337-1.824-3.464-2.749-6.32-2.749a8.908,8.908,0,0,0-6.1,2.347C20.667,10.609,19,9.51,18.214,7.9a7.137,7.137,0,0,1-.193-4.914A2.817,2.817,0,1,0,17.315.535c-1.765.58-7.822,2.964-7.822,8.3,0,.148.01.3.015.443A9.114,9.114,0,0,0,6.67,8.837c-2.857,0-4.984.925-6.321,2.753-2.477,3.38-1.424,8.818-.917,10.818a2.824,2.824,0,1,0,1.81.013c.55-1.456,1.734-3.7,3.31-3.7a3.587,3.587,0,0,1,3.424,1.835,19.989,19.989,0,0,1-.625,3.015A15.473,15.473,0,0,0,6.67,27.9c0,3.237,2.111,4.425,3.974,5.472.453.254.88.494,1.281.763A4.1,4.1,0,0,1,13.253,36.6c.519,1.784,1.163,4,4.711,4s4.192-2.217,4.71-4A4.081,4.081,0,0,1,24,34.132c.4-.268.829-.508,1.281-.763,1.863-1.05,3.974-2.237,3.974-5.474a15.453,15.453,0,0,0-.682-4.325,20,20,0,0,1-.625-3.015,3.587,3.587,0,0,1,3.425-1.836c1.57,0,2.757,2.246,3.308,3.7A2.823,2.823,0,1,0,36.5,22.4ZM20.081-.339A1.412,1.412,0,1,1,18.67,1.072,1.411,1.411,0,0,1,20.081-.339ZM16.757,2.254a8.721,8.721,0,0,0,.185,6.261,7.667,7.667,0,0,0,5.087,3.842c-.015.018-.027.04-.041.057a11.579,11.579,0,0,0-.689.943l-.013.018a4.837,4.837,0,0,0-.728.334,4.539,4.539,0,0,0-.651.435L17.964,15.7l-1.943-1.553c-.076-.061-.161-.105-.24-.16a4.488,4.488,0,0,0-.41-.274,4.993,4.993,0,0,0-.728-.334l-.028-.041c-.057-.086-.117-.174-.18-.264-.036-.052-.07-.1-.111-.158-.053-.07-.112-.149-.169-.225-.134-.177-.278-.353-.433-.536-.014-.016-.026-.032-.041-.049-.091-.1-.189-.211-.288-.315l-.1-.1c-.1-.1-.2-.2-.312-.306l-.114-.107q-.163-.151-.339-.3L12.4,10.87c-.119-.1-.241-.193-.368-.287-.045-.033-.092-.066-.141-.1-.131-.092-.262-.184-.4-.272-.045-.029-.093-.055-.141-.083-.131-.08-.258-.161-.4-.235A10.367,10.367,0,0,1,10.9,8.837c0-3.64,3.748-5.708,5.852-6.583ZM1.729,25.073A1.412,1.412,0,1,1,.317,23.661a1.412,1.412,0,0,1,1.412,1.412Zm2.824-7.765C2.61,17.307,1.28,19.1.5,20.631c-.412-2.286-.692-5.914.988-8.21,1.059-1.441,2.8-2.172,5.184-2.172a7.547,7.547,0,0,1,3.388.776c.168.083.33.171.487.264l.159.1c.163.1.323.212.474.319.031.023.061.046.092.07a8.829,8.829,0,0,1,1.392,1.314c-.033,0-.065.008-.1.01-.076.006-.151.015-.226.025s-.169.023-.252.039-.148.029-.222.046-.161.039-.24.062-.141.043-.216.071-.153.054-.229.084-.141.056-.208.087l-.217.1c-.072.034-.133.07-.2.106s-.141.082-.2.125-.125.08-.186.123-.129.095-.192.141-.116.091-.173.141-.119.107-.177.161-.107.1-.159.153-.109.119-.162.179-.1.108-.141.165-.1.13-.147.2-.085.116-.125.176-.088.141-.13.212-.074.122-.107.185-.074.151-.11.228-.062.127-.089.193c-.034.081-.062.165-.091.248-.023.064-.048.127-.071.193-.027.089-.048.181-.07.273-.016.062-.034.123-.046.188-.022.1-.034.211-.048.315-.008.054-.018.106-.024.16a4.892,4.892,0,0,0-.024.49v.541a4.922,4.922,0,0,0-3.527-1.2Zm20.04,14.83c-.456.256-.927.521-1.373.818a5.331,5.331,0,0,0-1.9,3.252c-.5,1.732-.867,2.982-3.354,2.982s-2.851-1.25-3.354-2.982a5.329,5.329,0,0,0-1.9-3.252c-.446-.3-.917-.565-1.373-.818-1.746-.983-3.254-1.831-3.254-4.242a14.1,14.1,0,0,1,.635-3.961,18.316,18.316,0,0,0,.776-5.216v-.76a3.479,3.479,0,0,1,3.475-3.475,3.389,3.389,0,0,1,.5.043,3.793,3.793,0,0,1,.507.118,3.461,3.461,0,0,1,1.163.6l2.384,1.906a.705.705,0,0,0,.882,0l2.381-1.906.021-.014a3.466,3.466,0,0,1,1.138-.585,3.856,3.856,0,0,1,.505-.119,3.436,3.436,0,0,1,3.983,3.431v.76a18.345,18.345,0,0,0,.776,5.216,14.1,14.1,0,0,1,.635,3.961c0,2.411-1.508,3.259-3.254,4.242Zm6.784-14.83a4.921,4.921,0,0,0-3.53,1.2v-.55a4.828,4.828,0,0,0-.025-.49c-.006-.054-.016-.107-.024-.16-.014-.106-.027-.212-.048-.316-.013-.064-.031-.125-.047-.187-.022-.092-.043-.184-.071-.273-.021-.066-.046-.129-.07-.193-.029-.083-.057-.167-.091-.248-.027-.066-.058-.128-.088-.192s-.07-.155-.11-.23-.07-.123-.108-.184-.084-.141-.13-.212-.082-.117-.124-.175-.1-.133-.148-.2-.093-.11-.141-.164-.107-.122-.164-.18-.1-.1-.157-.152-.117-.11-.179-.163-.113-.092-.172-.141a1.972,1.972,0,0,0-.193-.141c-.067-.043-.121-.082-.183-.121s-.137-.086-.207-.126-.129-.07-.2-.1-.141-.071-.22-.106-.136-.058-.2-.086-.153-.059-.232-.085-.141-.046-.212-.066-.161-.044-.243-.063-.145-.033-.219-.046-.169-.028-.253-.039-.149-.018-.225-.024c-.028,0-.055-.007-.082-.009.183-.212.364-.428.564-.621l.005-.007a7.521,7.521,0,0,1,5.408-2.206c2.381,0,4.123.73,5.18,2.169,1.681,2.291,1.4,5.922.992,8.21-.783-1.53-2.113-3.321-4.054-3.321Zm4.235,9.177a1.412,1.412,0,1,1,1.412-1.412A1.412,1.412,0,0,1,35.611,26.484Zm0,0" transform="translate(2.506 1.749)" fill="#101010"/>
      <path id="Path_5423" data-name="Path 5423" d="M451.131,451.171a.706.706,0,1,1-.706-.706A.706.706,0,0,1,451.131,451.171Zm0,0" transform="translate(-425.72 -426.467)" fill="#fc531c"/>
      <path id="Path_5424" data-name="Path 5424" d="M291.517,451.171a.706.706,0,1,1-.706-.706A.706.706,0,0,1,291.517,451.171Zm0,0" transform="translate(-274.577 -426.467)" fill="#fc531c"/>
      <path id="Path_5425" data-name="Path 5425" d="M197.7,53.049a.706.706,0,0,0,.594-.324,10.585,10.585,0,0,1,1.986-2.253.706.706,0,1,0-.925-1.066,12,12,0,0,0-2.249,2.555.706.706,0,0,0,.594,1.088Zm0,0" transform="translate(-186.407 -46.514)" fill="#ffc000"/>
    </g>
  </g>
</svg>
