<svg xmlns="http://www.w3.org/2000/svg" width="16.548" height="15.116" viewBox="0 0 16.548 15.116">
  <path id="Path_13" data-name="Path 13" d="M12.135,22.164a5.2,5.2,0,0,0-3.861,1.761,5.2,5.2,0,0,0-3.861-1.761C1.764,22.164,0,24.627,0,27.386c0,2.065,1.041,6.087,8.013,9.828a.552.552,0,0,0,.522,0c6.972-3.741,8.013-7.763,8.013-9.828C16.548,24.563,14.732,22.164,12.135,22.164ZM8.274,36.1C4.925,34.259,1.1,31.191,1.1,27.386c0-2.116,1.271-4.119,3.31-4.119a4.175,4.175,0,0,1,3.393,1.841.552.552,0,0,0,.938,0,4.227,4.227,0,0,1,3.392-1.84c2.054,0,3.31,2.023,3.31,4.119C15.445,31.191,11.623,34.259,8.274,36.1Z" transform="translate(0 -22.164)" fill="#fc531c"/>
</svg>
