<svg id="shop" xmlns="http://www.w3.org/2000/svg" width="20.855" height="20.855" viewBox="0 0 20.855 20.855">
  <g id="Group_3514" data-name="Group 3514" transform="translate(16.537 17.352)">
    <g id="Group_3513" data-name="Group 3513">
      <path id="Path_5411" data-name="Path 5411" d="M406.407,426a.407.407,0,1,0,.407.407A.408.408,0,0,0,406.407,426Z" transform="translate(-406 -426)" fill="#fc531c"/>
    </g>
  </g>
  <g id="Group_3516" data-name="Group 3516">
    <g id="Group_3515" data-name="Group 3515">
      <path id="Path_5412" data-name="Path 5412" d="M18.167,1.932v-.71A1.223,1.223,0,0,0,16.945,0H3.91A1.223,1.223,0,0,0,2.688,1.222v.71C.031,6.839,0,6.693,0,6.924H0v.815A2.027,2.027,0,0,0,1.059,9.475V20.448a.407.407,0,0,0,.407.407H19.389a.407.407,0,0,0,.407-.407V9.475a2.05,2.05,0,0,0,1.059-1.736V6.925h0C20.855,6.691,20.8,6.791,18.167,1.932Zm1.592,4.585H17.238L15.881,2.444h1.638Zm-5.665.815h2.444v.407a1.222,1.222,0,1,1-2.444,0Zm-.062-.815-.679-4.073h1.669L16.38,6.517ZM3.5,1.222A.408.408,0,0,1,3.91.815H16.945a.408.408,0,0,1,.407.407v.407H3.5Zm9.776,6.11v.407a1.222,1.222,0,0,1-2.444,0V7.332Zm-2.444-.815V2.444h1.692l.679,4.073Zm-3.185,0,.679-4.073H10.02V6.517Zm2.37.815v.407a1.222,1.222,0,0,1-2.444,0V7.332ZM4.475,6.517,5.833,2.444H7.5L6.824,6.517Zm2.286.815v.407a1.222,1.222,0,0,1-2.444,0V7.332ZM3.336,2.444H4.974L3.617,6.517H1.1ZM.815,7.739V7.332H3.5v.407A1.339,1.339,0,0,1,2.159,8.961a1.365,1.365,0,0,1-.532-.112A1.267,1.267,0,0,1,.815,7.739Zm7.576,12.3H4.318v-3.5H8.391Zm0-4.318H4.318v-3.5H8.391Zm10.59,4.318H9.206V11.812a.407.407,0,0,0-.407-.407H3.91a.407.407,0,0,0-.407.407V20.04H1.874V9.756a2.116,2.116,0,0,0,.285.02,2.245,2.245,0,0,0,1.487-.583,2.2,2.2,0,0,0,.245-.261,2.034,2.034,0,0,0,3.279.028,2.034,2.034,0,0,0,3.259,0,2.034,2.034,0,0,0,3.259,0,2.034,2.034,0,0,0,3.279-.028,2.205,2.205,0,0,0,.245.261,2.245,2.245,0,0,0,1.487.583,2.107,2.107,0,0,0,.285-.02Zm1.059-12.3A1.268,1.268,0,0,1,19.2,8.862a1.353,1.353,0,0,1-.5.1,1.339,1.339,0,0,1-1.344-1.222V7.332H20.04Z" fill="#fc531c"/>
    </g>
  </g>
  <g id="Group_3518" data-name="Group 3518" transform="translate(10.835 11.405)">
    <g id="Group_3517" data-name="Group 3517">
      <path id="Path_5413" data-name="Path 5413" d="M272.924,284.318h-.407v-3.91a.407.407,0,0,0-.407-.407h-4.888a.407.407,0,0,0-.407.407v3.91h-.407a.407.407,0,0,0,0,.815h6.517a.407.407,0,0,0,0-.815Zm-1.222,0h-4.073v-3.5H271.7Z" transform="translate(-266 -280)" fill="#fc531c"/>
    </g>
  </g>
  <g id="Group_3520" data-name="Group 3520" transform="translate(11.649 17.352)">
    <g id="Group_3519" data-name="Group 3519">
      <path id="Path_5414" data-name="Path 5414" d="M289.666,426h-3.259a.407.407,0,0,0,0,.815h3.259a.407.407,0,1,0,0-.815Z" transform="translate(-286 -426)" fill="#fc531c"/>
    </g>
  </g>
</svg>
