<svg xmlns="http://www.w3.org/2000/svg" xmlns:xlink="http://www.w3.org/1999/xlink" width="200" height="200" viewBox="0 0 200 200">
  <defs>
    <clipPath id="clip-path">
      <rect id="Rectangle_3368" data-name="Rectangle 3368" width="200" height="200" transform="translate(74 219)"/>
    </clipPath>
  </defs>
  <g id="Mask_Group_702" data-name="Mask Group 702" transform="translate(-74 -219)" clip-path="url(#clip-path)">
    <g id="shop" transform="translate(74 225.383)">
      <g id="Group_2068" data-name="Group 2068">
        <path id="Path_4677" data-name="Path 4677" d="M178.723,18.553V1.532H17.021V18.553L0,78.128v9.753a23.7,23.7,0,0,0,12.766,20.728v80.157H46.809V120.681H80.851v68.085H182.979V110.34A23.8,23.8,0,0,0,200,87.881V78.128ZM23.4,102.774c-7.013,0-14.894-5.626-14.894-16.136H38.3C38.3,97.132,30.426,102.774,23.4,102.774ZM144.681,18.553l8.511,59.574H123.4l-4.255-59.574Zm8.511,68.085c0,10.426-7.813,16.136-14.894,16.136-7.238,0-14.894-5.843-14.894-16.136ZM61.7,102.774c-7.013,0-14.894-5.626-14.894-16.136H76.6C76.6,97.132,68.723,102.774,61.7,102.774ZM76.6,78.128H46.809l8.511-59.574H80.851Zm8.511,8.511h29.787c0,10.494-7.872,16.136-14.894,16.136S85.106,97.149,85.106,86.638Zm80.851,85.106H97.872V120.681h68.085Zm10.638-68.97c-7.238,0-14.894-5.843-14.894-16.136h29.787C191.489,97.064,183.677,102.774,176.6,102.774Z" transform="translate(0 -1.532)"/>
      </g>
    </g>
  </g>
</svg>
