<svg xmlns="http://www.w3.org/2000/svg" xmlns:xlink="http://www.w3.org/1999/xlink" width="40" height="40" viewBox="0 0 40 40">
  <defs>
    <clipPath id="clip-path">
      <rect id="Rectangle_3865" data-name="Rectangle 3865" width="20" height="20" transform="translate(0 -0.361)" fill="#fff"/>
    </clipPath>
  </defs>
  <g id="Group_9738" data-name="Group 9738" transform="translate(-260 -357)">
    <g id="Group_9737" data-name="Group 9737" transform="translate(260 357.293)">
      <rect id="Rectangle_2437" data-name="Rectangle 2437" width="40" height="40" rx="8" transform="translate(0 -0.293)" fill="#e87e41" style="mix-blend-mode: multiply;isolation: isolate"/>
    </g>
    <g id="Mask_Group_872" data-name="Mask Group 872" transform="translate(270 364.361)" clip-path="url(#clip-path)">
      <g id="bell" transform="translate(1.667)">
        <path id="Path_4814" data-name="Path 4814" d="M18.149,14.094a5.582,5.582,0,0,1-1.983-4.271V7.5a5.838,5.838,0,0,0-5-5.767v-.9A.833.833,0,0,0,9.5.833v.9A5.837,5.837,0,0,0,4.5,7.5V9.823A5.588,5.588,0,0,1,2.51,14.1a1.458,1.458,0,0,0,.948,2.566h13.75a1.458,1.458,0,0,0,.941-2.572Z" transform="translate(-2 0)" fill="#fff"/>
        <path id="Path_4815" data-name="Path 4815" d="M11.388,23.5A3.13,3.13,0,0,0,14.449,21H8.326A3.13,3.13,0,0,0,11.388,23.5Z" transform="translate(-3.054 -3.5)" fill="#fff"/>
      </g>
    </g>
  </g>
</svg>
