<svg xmlns="http://www.w3.org/2000/svg" xmlns:xlink="http://www.w3.org/1999/xlink" width="160" height="160" viewBox="0 0 160 160"><defs><style>.a{fill:#fff;}.b{fill:#e87e41;}.c{clip-path:url(#a);}</style><clipPath id="a"><rect class="a" width="20" height="20" transform="translate(20 192)"/></clipPath></defs><g transform="translate(-16 -200)"><rect class="b" width="40" height="40" rx="8" transform="translate(16 200)"/><g class="c" transform="translate(6 18)"><g transform="translate(21.667 192)"><path class="a" d="M18.149,14.094a5.582,5.582,0,0,1-1.983-4.271V7.5a5.838,5.838,0,0,0-5-5.767v-.9A.833.833,0,0,0,9.5.833v.9A5.837,5.837,0,0,0,4.5,7.5V9.823A5.588,5.588,0,0,1,2.51,14.1a1.458,1.458,0,0,0,.948,2.566h13.75a1.458,1.458,0,0,0,.941-2.572Z" transform="translate(-2 0)"/><path class="a" d="M11.388,23.5A3.13,3.13,0,0,0,14.449,21H8.326A3.13,3.13,0,0,0,11.388,23.5Z" transform="translate(-3.054 -3.5)"/></g></g></g></svg>