<svg xmlns="http://www.w3.org/2000/svg" width="32" height="32" viewBox="0 0 32 32">
  <g id="Group_9733" data-name="Group 9733" transform="translate(-315 -122)">
    <g id="Path_15233" data-name="Path 15233" transform="translate(315 122)" fill="#f9f9f9">
      <path d="M 16 31.5 C 11.85980033874512 31.5 7.967410087585449 29.88772010803223 5.039840221405029 26.96015930175781 C 2.112279891967773 24.03259086608887 0.5 20.14019966125488 0.5 16 C 0.5 11.85980033874512 2.112279891967773 7.967410087585449 5.039840221405029 5.039840221405029 C 7.967410087585449 2.112279891967773 11.85980033874512 0.5 16 0.5 C 20.14019966125488 0.5 24.03259086608887 2.112279891967773 26.96015930175781 5.039840221405029 C 29.88772010803223 7.967410087585449 31.5 11.85980033874512 31.5 16 C 31.5 20.14019966125488 29.88772010803223 24.03259086608887 26.96015930175781 26.96015930175781 C 24.03259086608887 29.88772010803223 20.14019966125488 31.5 16 31.5 Z" stroke="none"/>
      <path d="M 16 1 C 11.99334907531738 1 8.226520538330078 2.560270309448242 5.393400192260742 5.393400192260742 C 2.560270309448242 8.226520538330078 1 11.99334907531738 1 16 C 1 20.00664901733398 2.560270309448242 23.77347946166992 5.393400192260742 26.60659980773926 C 8.226520538330078 29.43972969055176 11.99334907531738 31 16 31 C 20.00664901733398 31 23.77347946166992 29.43972969055176 26.60659980773926 26.60659980773926 C 29.43972969055176 23.77347946166992 31 20.00664901733398 31 16 C 31 11.99334907531738 29.43972969055176 8.226520538330078 26.60659980773926 5.393400192260742 C 23.77347946166992 2.560270309448242 20.00664901733398 1 16 1 M 16 0 C 24.8365592956543 0 32 7.163440704345703 32 16 C 32 24.8365592956543 24.8365592956543 32 16 32 C 7.163440704345703 32 0 24.8365592956543 0 16 C 0 7.163440704345703 7.163440704345703 0 16 0 Z" stroke="none" fill="#e9e9e9"/>
    </g>
    <path id="notification_1_" data-name="notification (1)" d="M18.534,17.475h-.883V11.3A7.957,7.957,0,0,0,12,3.692a2.559,2.559,0,1,0-4.589,0,7.957,7.957,0,0,0-5.649,7.6v6.178H.882a.883.883,0,0,0,0,1.765H5.388a4.243,4.243,0,0,0,4.144,3.354h.353a4.243,4.243,0,0,0,4.144-3.354h4.506a.883.883,0,0,0,0-1.765ZM8.914,2.559a.794.794,0,1,1,.794.794A.8.8,0,0,1,8.914,2.559Zm.971,18.269H9.532A2.475,2.475,0,0,1,7.223,19.24h4.97a2.475,2.475,0,0,1-2.308,1.589ZM3.53,17.475V11.3a6.178,6.178,0,0,1,12.356,0v6.178Zm0,0" transform="translate(321 127)" fill="#ffc000"/>
  </g>
</svg>
