<svg xmlns="http://www.w3.org/2000/svg" width="29.852" height="35.781" viewBox="0 0 29.852 35.781">
  <g id="user_3_" data-name="user (3)" opacity="0.54">
    <path id="Path_59" data-name="Path 59" d="M95.65,17.236a8.339,8.339,0,0,0,6.094-2.525,8.339,8.339,0,0,0,2.525-6.093,8.34,8.34,0,0,0-2.525-6.093,8.616,8.616,0,0,0-12.187,0,8.339,8.339,0,0,0-2.525,6.093,8.339,8.339,0,0,0,2.525,6.094A8.342,8.342,0,0,0,95.65,17.236ZM91.039,4.007a6.519,6.519,0,0,1,9.221,0,6.23,6.23,0,0,1,1.911,4.61,6.23,6.23,0,0,1-1.911,4.611,6.518,6.518,0,0,1-9.221,0,6.229,6.229,0,0,1-1.911-4.611A6.23,6.23,0,0,1,91.039,4.007Zm0,0" transform="translate(-80.95 0)" fill="#fc531c"/>
    <path id="Path_60" data-name="Path 60" d="M29.779,257.546a21.289,21.289,0,0,0-.29-2.261,17.81,17.81,0,0,0-.556-2.273,11.229,11.229,0,0,0-.935-2.12,7.99,7.99,0,0,0-1.409-1.836,6.212,6.212,0,0,0-2.024-1.272,6.994,6.994,0,0,0-2.584-.468,2.623,2.623,0,0,0-1.4.594c-.42.274-.911.591-1.459.941a8.365,8.365,0,0,1-1.888.832,7.331,7.331,0,0,1-4.618,0,8.338,8.338,0,0,1-1.887-.831c-.543-.347-1.034-.664-1.46-.941a2.62,2.62,0,0,0-1.4-.594,6.987,6.987,0,0,0-2.584.468,6.209,6.209,0,0,0-2.024,1.272,7.994,7.994,0,0,0-1.409,1.836,11.251,11.251,0,0,0-.934,2.12,17.854,17.854,0,0,0-.556,2.273,21.141,21.141,0,0,0-.29,2.262C.024,258.23,0,258.942,0,259.66a5.941,5.941,0,0,0,1.765,4.495,6.351,6.351,0,0,0,4.547,1.658H23.54a6.352,6.352,0,0,0,4.547-1.658,5.939,5.939,0,0,0,1.765-4.5c0-.721-.025-1.432-.072-2.113Zm-3.138,5.09a4.277,4.277,0,0,1-3.1,1.081H6.312a4.277,4.277,0,0,1-3.1-1.08A3.88,3.88,0,0,1,2.1,259.66c0-.67.022-1.332.066-1.968a19.068,19.068,0,0,1,.262-2.036,15.744,15.744,0,0,1,.489-2,9.157,9.157,0,0,1,.761-1.724,5.925,5.925,0,0,1,1.035-1.357,4.121,4.121,0,0,1,1.347-.837,4.826,4.826,0,0,1,1.651-.319c.073.039.2.113.416.252.431.281.928.6,1.477.952a10.388,10.388,0,0,0,2.37,1.059,9.426,9.426,0,0,0,5.908,0,10.4,10.4,0,0,0,2.371-1.06c.562-.359,1.045-.67,1.476-.952.212-.138.343-.213.416-.252a4.829,4.829,0,0,1,1.652.319,4.128,4.128,0,0,1,1.346.837,5.91,5.91,0,0,1,1.035,1.357,9.127,9.127,0,0,1,.761,1.723,15.712,15.712,0,0,1,.489,2,19.226,19.226,0,0,1,.262,2.037h0c.044.633.067,1.295.067,1.967a3.88,3.88,0,0,1-1.114,2.976Zm0,0" transform="translate(0 -230.033)" fill="#fc531c"/>
  </g>
</svg>
