<svg xmlns="http://www.w3.org/2000/svg" width="44" height="44" viewBox="0 0 44 44">
  <g id="Group_9736" data-name="Group 9736" transform="translate(-309 -501)">
    <g id="Group_178" data-name="Group 178" transform="translate(309 501.445)">
      <circle id="Ellipse_4" data-name="Ellipse 4" cx="22" cy="22" r="22" transform="translate(0 -0.445)" fill="#48e295" opacity="0.12"/>
    </g>
    <path id="question" d="M11.57,18.2a.908.908,0,1,1,.908-.908A.907.907,0,0,1,11.57,18.2Zm.908-4.084V12.893a3.783,3.783,0,1,0-3.569-6.38,3.716,3.716,0,0,0-1.15,2.7.908.908,0,1,0,1.815,0,1.916,1.916,0,0,1,.594-1.391,2.008,2.008,0,0,1,1.482-.559,1.96,1.96,0,0,1,.359,3.878A1.7,1.7,0,0,0,10.663,12.8v1.308a.908.908,0,0,0,1.815,0Zm5.148,7.446a.907.907,0,1,0-.94-1.552,9.887,9.887,0,1,1,3.069-2.95.907.907,0,1,0,1.509,1.009A11.61,11.61,0,0,0,3.4,3.4,11.617,11.617,0,0,0,17.626,21.558Zm0,0" transform="translate(319.348 511.446)" fill="#48e295"/>
  </g>
</svg>
