<svg id="restaurant" xmlns="http://www.w3.org/2000/svg" width="128" height="200" viewBox="0 0 128 200">
  <g id="Group_2207" data-name="Group 2207" transform="translate(0)">
    <g id="Group_2206" data-name="Group 2206">
      <path id="Path_4824" data-name="Path 4824" d="M68.939,53.967,61.375,3.55A4.153,4.153,0,0,0,57.26,0h-.142a4.145,4.145,0,0,0-4.007,3.817L49.462,47.592c-.225,2.7-5.015,2.7-5.24,0L40.581,3.817a4.163,4.163,0,0,0-8.3,0L28.635,47.592c-.225,2.7-5.015,2.7-5.24,0L19.754,3.817A4.173,4.173,0,0,0,15.738,0h-.133A4.153,4.153,0,0,0,11.49,3.55L3.934,53.967a32.6,32.6,0,0,0,19.3,34.8L16.8,178.934A19.669,19.669,0,0,0,36.416,200h.033a19.67,19.67,0,0,0,19.619-21.067L49.637,88.767A32.6,32.6,0,0,0,68.939,53.967Z" transform="translate(-3.565)"/>
    </g>
  </g>
  <g id="Group_2209" data-name="Group 2209" transform="translate(86.354 0.007)">
    <g id="Group_2208" data-name="Group 2208">
      <path id="Path_4825" data-name="Path 4825" d="M52.157.761A4.177,4.177,0,0,0,48.367.236c-.358.125-36.1,13.258-36.1,53.925,0,29.275,9.522,44.058,14.879,50.058l-5.332,5.333a4.138,4.138,0,0,0-1.2,2.533l-6.59,65.925a19.994,19.994,0,1,0,39.889,1.984V4.161A4.124,4.124,0,0,0,52.157.761Z" transform="translate(-12.269 -0.001)"/>
    </g>
  </g>
</svg>
