<svg xmlns="http://www.w3.org/2000/svg" width="24.859" height="18.645" viewBox="0 0 24.859 18.645">
  <g id="coupon_1_" data-name="coupon (1)" transform="translate(0 -59.411)">
    <path id="Path_5647" data-name="Path 5647" d="M22.529,78.056H2.331A2.333,2.333,0,0,1,0,75.725V71.841a.776.776,0,0,1,.777-.777,2.331,2.331,0,0,0,0-4.661A.776.776,0,0,1,0,65.626V61.742a2.333,2.333,0,0,1,2.331-2.331h20.2a2.333,2.333,0,0,1,2.331,2.331v3.884a.776.776,0,0,1-.777.777,2.331,2.331,0,0,0,0,4.661.776.776,0,0,1,.777.777v3.884A2.333,2.333,0,0,1,22.529,78.056ZM1.554,72.539v3.186a.777.777,0,0,0,.777.777h20.2a.777.777,0,0,0,.777-.777V72.539a3.885,3.885,0,0,1,0-7.612V61.742a.777.777,0,0,0-.777-.777H2.331a.777.777,0,0,0-.777.777v3.186a3.885,3.885,0,0,1,0,7.612Z" fill="#fc531c"/>
    <path id="Path_5648" data-name="Path 5648" d="M0,0H13.275V1.554H0Z" transform="translate(9.372 74.665) rotate(-69.444)" fill="#fc531c"/>
    <path id="path-1_20_" d="M121.154,153.19a2.331,2.331,0,1,1,2.331-2.331A2.333,2.333,0,0,1,121.154,153.19Zm0-3.107a.777.777,0,1,0,.777.777A.777.777,0,0,0,121.154,150.083Z" transform="translate(-112.399 -84.195)" fill="#fc531c"/>
    <path id="path-1_19_" d="M269.683,242.307a2.331,2.331,0,1,1,2.331-2.331A2.333,2.333,0,0,1,269.683,242.307Zm0-3.107a.777.777,0,1,0,.777.777A.777.777,0,0,0,269.683,239.2Z" transform="translate(-252.898 -168.494)" fill="#fc531c"/>
  </g>
</svg>
