<svg xmlns="http://www.w3.org/2000/svg" width="40" height="40" viewBox="0 0 40 40">
  <g id="Group_9743" data-name="Group 9743" transform="translate(-16 -328)">
    <g id="Group_9741" data-name="Group 9741" transform="translate(0 57)">
      <g id="Group_9742" data-name="Group 9742">
        <rect id="Rectangle_2437" data-name="Rectangle 2437" width="40" height="40" rx="8" transform="translate(16 271)" fill="#e87e41"/>
      </g>
    </g>
    <g id="Group_9694" data-name="Group 9694" transform="translate(22 334.832)">
      <g id="Group_9693" data-name="Group 9693">
        <path id="Path_4242" data-name="Path 4242" d="M3.8,21.345a1.468,1.468,0,0,0-.85.278A15.163,15.163,0,0,1,.843,13.8C.843,6.785,5.3,1.078,10.789,1.078a7.921,7.921,0,0,1,1.981.252c.228.059.45-.13.5-.422a.55.55,0,0,0-.33-.635A8.591,8.591,0,0,0,10.789,0,9.7,9.7,0,0,0,3.16,4.042,15.854,15.854,0,0,0,0,13.8a16.426,16.426,0,0,0,2.322,8.553,2.715,2.715,0,0,0-.3,1.256,2.6,2.6,0,0,0,.519,1.6,1.591,1.591,0,0,0,1.252.663,1.592,1.592,0,0,0,1.252-.663,2.731,2.731,0,0,0,0-3.2A1.591,1.591,0,0,0,3.8,21.345Zm.656,3.1A.833.833,0,0,1,3.8,24.8a.834.834,0,0,1-.656-.347,1.43,1.43,0,0,1,0-1.677.833.833,0,0,1,.656-.347.834.834,0,0,1,.656.347,1.43,1.43,0,0,1,0,1.677Zm0,0" transform="translate(0 0.001)" fill="#fff"/>
        <path id="Path_4243" data-name="Path 4243" d="M208.418,35.57a2.759,2.759,0,0,0-.221-2.856,1.513,1.513,0,0,0-2.5,0,2.731,2.731,0,0,0,0,3.2,1.591,1.591,0,0,0,1.252.663,1.468,1.468,0,0,0,.85-.278,15.164,15.164,0,0,1,2.1,7.822c0,7.015-4.462,12.723-9.947,12.723a7.918,7.918,0,0,1-1.962-.247c-.228-.058-.45.131-.5.423a.55.55,0,0,0,.331.634,8.6,8.6,0,0,0,2.127.268,9.7,9.7,0,0,0,7.63-4.042,15.854,15.854,0,0,0,3.16-9.759,16.427,16.427,0,0,0-2.322-8.553Zm-2.129-.417a1.43,1.43,0,0,1,0-1.677.792.792,0,0,1,1.311,0,1.433,1.433,0,0,1,0,1.677.793.793,0,0,1-1.311,0Zm0,0" transform="translate(-183.359 -30.7)" fill="#fff"/>
        <path id="Path_4244" data-name="Path 4244" d="M82.16,94.41a.579.579,0,0,0,.581.577h3.632a.579.579,0,0,0,.581-.577V93.292a9.133,9.133,0,0,0,2.18-.9l.8.789a.584.584,0,0,0,.822,0l2.567-2.55a.574.574,0,0,0,0-.815l-.794-.788a8.991,8.991,0,0,0,.9-2.164h1.122a.579.579,0,0,0,.581-.577V82.686a.579.579,0,0,0-.581-.577H93.426a8.994,8.994,0,0,0-.9-2.164l.79-.784a.574.574,0,0,0,0-.816L90.743,75.8a.584.584,0,0,0-.821,0l-.789.783a9.133,9.133,0,0,0-2.18-.9V74.577A.579.579,0,0,0,86.372,74H82.74a.579.579,0,0,0-.581.577v1.108a9.126,9.126,0,0,0-2.18.9l-.789-.783a.584.584,0,0,0-.821,0L75.8,78.346a.573.573,0,0,0,0,.816l.79.784a8.99,8.99,0,0,0-.9,2.164h-1.12a.579.579,0,0,0-.581.576l0,3.605a.574.574,0,0,0,.17.408.583.583,0,0,0,.411.169h1.122a8.992,8.992,0,0,0,.9,2.164l-.794.788a.574.574,0,0,0,0,.815l2.567,2.55a.583.583,0,0,0,.411.169h0a.583.583,0,0,0,.411-.169l.795-.789a9.141,9.141,0,0,0,2.18.9Zm-1.952-3.227a.584.584,0,0,0-.726.077l-.707.7-1.746-1.734.707-.7a.573.573,0,0,0,.077-.72,7.86,7.86,0,0,1-1.1-2.636.58.58,0,0,0-.568-.455h-1V83.262h1a.58.58,0,0,0,.568-.455,7.861,7.861,0,0,1,1.1-2.636.573.573,0,0,0-.077-.72l-.7-.7,1.747-1.733.7.7a.585.585,0,0,0,.726.077A7.98,7.98,0,0,1,82.863,76.7a.578.578,0,0,0,.459-.564v-.985h2.47v.984a.577.577,0,0,0,.459.564,7.986,7.986,0,0,1,2.655,1.092.584.584,0,0,0,.726-.077l.7-.7,1.747,1.733-.7.7a.573.573,0,0,0-.077.721,7.865,7.865,0,0,1,1.1,2.636.58.58,0,0,0,.568.455h1v2.452h-1a.58.58,0,0,0-.568.455A7.859,7.859,0,0,1,91.3,88.8a.574.574,0,0,0,.077.721l.707.7-1.746,1.734-.707-.7a.584.584,0,0,0-.726-.077,7.988,7.988,0,0,1-2.655,1.092.577.577,0,0,0-.459.564v.995h-2.47v-.995a.578.578,0,0,0-.459-.564,7.984,7.984,0,0,1-2.655-1.092Zm0,0" transform="translate(-70.866 -70.881)" fill="#fff"/>
      </g>
      <path id="Path_4245" data-name="Path 4245" d="M180.336,176.854a3.483,3.483,0,1,0-3.483,3.483A3.487,3.487,0,0,0,180.336,176.854Zm-6.122,0a2.64,2.64,0,1,1,2.64,2.64A2.643,2.643,0,0,1,174.214,176.854Zm0,0" transform="translate(-163.163 -163.241)" fill="#fff"/>
      <path id="Path_4246" data-name="Path 4246" d="M338.5,18.652a.422.422,0,1,0-.3-.123A.425.425,0,0,0,338.5,18.652Zm0,0" transform="translate(-319.842 -17.058)" fill="#fff"/>
      <path id="Path_4247" data-name="Path 4247" d="M154.78,474.359a.422.422,0,1,0,.3.123A.425.425,0,0,0,154.78,474.359Zm0,0" transform="translate(-146.033 -448.721)" fill="#fff"/>
    </g>
  </g>
</svg>
