<svg xmlns="http://www.w3.org/2000/svg" width="375" height="271.704" viewBox="0 0 375 271.704">
  <g id="Group_9698" data-name="Group 9698" transform="translate(0 -82)">
    <g id="Photo" transform="translate(0 82)">
      <rect id="Rectangle_477" data-name="Rectangle 477" width="375" height="271.704" fill="#f5f5f7"/>
    </g>
    <g id="Group_12" data-name="Group 12" transform="translate(-55.38 -6.883)">
      <path id="BG" d="M305.58,95.3a10.59,10.59,0,1,1,10.59,10.59A10.59,10.59,0,0,1,305.58,95.3ZM69.588,105.895a10.59,10.59,0,1,1,0-21.179h-59a10.589,10.589,0,1,1,0-21.178H71.1a10.59,10.59,0,0,0,0-21.179H33.28a10.589,10.589,0,0,1,0-21.178H93.792A10.59,10.59,0,0,1,93.792,0H180.02a10.59,10.59,0,0,1,0,21.179h96.818a10.589,10.589,0,1,1,0,21.178h33.282a10.59,10.59,0,1,1,0,21.179H281.377a10.589,10.589,0,1,0,0,21.178h9.076a10.59,10.59,0,1,1,0,21.179Z" transform="translate(80 158.361)" fill="#fbfbfb"/>
      <g id="bling" transform="translate(350.39 278.511)">
        <path id="Line" d="M.5,0V9.077" transform="translate(14.628)" fill="none" stroke="#ffc000" stroke-linecap="round" stroke-linejoin="round" stroke-miterlimit="10" stroke-width="2.5"/>
        <path id="Line-2" data-name="Line" d="M.5,0V9.077" transform="translate(14.628 21.179)" fill="none" stroke="#ffc000" stroke-linecap="round" stroke-linejoin="round" stroke-miterlimit="10" stroke-width="2.5"/>
        <path id="Line-3" data-name="Line" d="M0,0V9.077" transform="translate(0 15.128) rotate(-90)" fill="none" stroke="#ffc000" stroke-linecap="round" stroke-linejoin="round" stroke-miterlimit="10" stroke-width="2.5"/>
        <path id="Line-4" data-name="Line" d="M0,0V9.077" transform="translate(21.179 15.128) rotate(-90)" fill="none" stroke="#ffc000" stroke-linecap="round" stroke-linejoin="round" stroke-miterlimit="10" stroke-width="2.5"/>
      </g>
      <g id="bling-2" data-name="bling" transform="translate(123.114 147.772)">
        <path id="Line-5" data-name="Line" d="M.5,0V6.051" transform="translate(11.602)" fill="none" stroke="#48e295" stroke-linecap="round" stroke-linejoin="round" stroke-miterlimit="10" stroke-width="2.5"/>
        <path id="Line-6" data-name="Line" d="M.5,0V6.051" transform="translate(11.602 18.153)" fill="none" stroke="#48e295" stroke-linecap="round" stroke-linejoin="round" stroke-miterlimit="10" stroke-width="2.5"/>
        <path id="Line-7" data-name="Line" d="M0,0V6.051" transform="translate(0 12.102) rotate(-90)" fill="none" stroke="#48e295" stroke-linecap="round" stroke-linejoin="round" stroke-miterlimit="10" stroke-width="2.5"/>
        <path id="Line-8" data-name="Line" d="M0,0V6.051" transform="translate(18.153 12.102) rotate(-90)" fill="none" stroke="#48e295" stroke-linecap="round" stroke-linejoin="round" stroke-miterlimit="10" stroke-width="2.5"/>
      </g>
    </g>
    <g id="Group_9697" data-name="Group 9697" transform="translate(101.5 149.478)">
      <ellipse id="Ellipse_212" data-name="Ellipse 212" cx="18.239" cy="3.813" rx="18.239" ry="3.813" transform="translate(0 156.156)" fill="#e6e6e6"/>
      <path id="Path_15404" data-name="Path 15404" d="M334.736,543.135l.714,1.475s4.05,5.406,1.548,6.252-3.83-5.127-3.83-5.127l-.662-.836Z" transform="translate(-301.336 -439.843)" fill="#a0616a"/>
      <path id="Path_15405" data-name="Path 15405" d="M307.288,420.677l.666-.282a1.462,1.462,0,0,1,.788,1.493c0,1.211-.969,18.9-.969,18.9l1.938,9.691-2.665.485L302.927,442Z" transform="translate(-278.554 -345.307)" fill="#575a89"/>
      <path id="Path_15406" data-name="Path 15406" d="M307.288,420.677l.666-.282a1.462,1.462,0,0,1,.788,1.493c0,1.211-.969,18.9-.969,18.9l5.209,8.359-3.392,2.423L302.927,442Z" transform="translate(-278.554 -345.307)" fill="#575a89"/>
      <path id="Path_15407" data-name="Path 15407" d="M236.964,540.679s3.15,1.211,2.907,3.392-3.392,45.55-3.392,45.55l.969,4.846-9.207.242L228,563.454l-6.542,31.255h-9.207l6.542-55Z" transform="translate(-208.715 -437.204)" fill="#2f2e41"/>
      <path id="Path_15408" data-name="Path 15408" d="M290.646,773.779l2.181,2.181s5.088.969,3.877,2.665-13.81-.485-13.81-.485l.242-3.877Z" transform="translate(-263.124 -617.486)" fill="#2f2e41"/>
      <path id="Path_15409" data-name="Path 15409" d="M222.113,773.779l2.181,2.181s5.088.969,3.877,2.665-13.81-.485-13.81-.485l.242-3.877Z" transform="translate(-210.339 -617.486)" fill="#2f2e41"/>
      <circle id="Ellipse_213" data-name="Ellipse 213" cx="5.815" cy="5.815" r="5.815" transform="translate(14.682 55.017)" fill="#a0616a"/>
      <path id="Path_15410" data-name="Path 15410" d="M78.212,279.489l-.485,9.933-7.511-4.361.969-5.572Z" transform="translate(-54.081 -215.265)" fill="#a0616a"/>
      <path id="Path_15411" data-name="Path 15411" d="M69.162,293.2l7.026,5.088,1.211-3.634,2.181,5.815-1.211,10.418Z" transform="translate(-53.269 -225.821)" fill="#fc531c"/>
      <path id="Path_15412" data-name="Path 15412" d="M243.227,383.7l7,10.652.281-8.906.862.679a4,4,0,0,1,1.522,3.138h0l3.392,3.15-1.211,12.114-.242,14.295s1.454,1.211.969,1.938a6.4,6.4,0,0,1-4.6,2.423c-2.181,0-15.749-1.7-15.749-2.665s.485-13.568.485-13.568v-16.96l5.815-4.361Z" transform="translate(-226.581 -317.046)" fill="#575a89"/>
      <path id="Path_15413" data-name="Path 15413" d="M36.477,459.372l3.15,4.6,1.211-5.33-1.454-.969Z" transform="translate(-28.095 -352.506)" fill="#a0616a"/>
      <rect id="Rectangle_2077" data-name="Rectangle 2077" width="13.449" height="0.485" transform="matrix(0.346, -0.938, 0.938, 0.346, 19.003, 126.425)" opacity="0.2"/>
      <path id="Path_15414" data-name="Path 15414" d="M261.753,323.514a3.9,3.9,0,0,1,4.846-2.907l-.485.242s3.877-.485,3.392,1.7c0,0,3.15,1.938,2.423,4.119a24.654,24.654,0,0,0-.969,3.877l-.727-.727s-.727-4.846-5.088-4.361c-3.271.363-4.6,1.908-4.944,3.021a9.832,9.832,0,0,1-.6,1.523l-.272.06S257.877,324.725,261.753,323.514Z" transform="translate(-244.77 -268.375)" fill="#2f2e41"/>
      <path id="Path_15415" data-name="Path 15415" d="M212.489,409.68l-2.206-.1-.46.345a14.5,14.5,0,0,0-1.454,1.7c-.485.727-6.784,18.414-6.784,18.414a6.174,6.174,0,0,0,.485,3.15c.727,1.7,6.542,11.872,6.542,11.872l4.361-2.665-5.815-11.872,4.119-5.815Z" transform="translate(-200.473 -336.976)" fill="#575a89"/>
      <path id="Path_15416" data-name="Path 15416" d="M549.3,130.737h-.858v-23.5a13.6,13.6,0,0,0-13.6-13.6H485.04a13.6,13.6,0,0,0-13.6,13.6V236.174a13.6,13.6,0,0,0,13.6,13.6h49.794a13.6,13.6,0,0,0,13.6-13.6V147.467h.858Z" transform="translate(-408.342 -93.632)" fill="#3f3d56"/>
      <path id="Path_15417" data-name="Path 15417" d="M554.972,114.29V245.051a10.317,10.317,0,0,1-10.313,10.315H493.841a10.319,10.319,0,0,1-10.32-10.317V114.29a10.318,10.318,0,0,1,10.32-10.315h6.164a4.906,4.906,0,0,0,4.538,6.754h28.971a4.906,4.906,0,0,0,4.538-6.754h6.6a10.317,10.317,0,0,1,10.315,10.313Z" transform="translate(-417.649 -101.598)" fill="#e6e6e6"/>
      <rect id="Rectangle_2078" data-name="Rectangle 2078" width="51.265" height="51.265" transform="translate(75.965 80.787)" fill="#fff"/>
      <rect id="Rectangle_2081" data-name="Rectangle 2081" width="19.956" height="1.5" transform="translate(90.737 85.736)" fill="#e6e6e6"/>
      <rect id="Rectangle_2082" data-name="Rectangle 2082" width="30.816" height="1.5" transform="translate(90.737 90.139)" fill="#fc531c"/>
      <rect id="Rectangle_2083" data-name="Rectangle 2083" width="25.114" height="1.5" transform="translate(91.058 94.333)" fill="#e6e6e6"/>
      <rect id="Rectangle_2084" data-name="Rectangle 2084" width="14.661" height="1.5" transform="translate(90.737 98.934)" fill="#e6e6e6"/>
      <rect id="Rectangle_2085" data-name="Rectangle 2085" width="22.128" height="1.5" transform="translate(90.737 103.428)" fill="#fc531c"/>
      <rect id="Rectangle_2086" data-name="Rectangle 2086" width="2.444" height="2.444" transform="translate(81.642 85.264)" fill="#e6e6e6"/>
      <rect id="Rectangle_2087" data-name="Rectangle 2087" width="2.444" height="2.444" transform="translate(81.642 89.667)" fill="#fc531c"/>
      <rect id="Rectangle_2088" data-name="Rectangle 2088" width="2.444" height="2.444" transform="translate(81.642 93.861)" fill="#e6e6e6"/>
      <rect id="Rectangle_2089" data-name="Rectangle 2089" width="2.444" height="2.444" transform="translate(81.642 98.462)" fill="#e6e6e6"/>
      <rect id="Rectangle_2090" data-name="Rectangle 2090" width="2.444" height="2.444" transform="translate(81.642 102.957)" fill="#fc531c"/>
      <rect id="Rectangle_2091" data-name="Rectangle 2091" width="19.956" height="1.5" transform="translate(90.737 107.951)" fill="#e6e6e6"/>
      <rect id="Rectangle_2092" data-name="Rectangle 2092" width="30.816" height="1.5" transform="translate(90.737 112.354)" fill="#fc531c"/>
      <rect id="Rectangle_2093" data-name="Rectangle 2093" width="25.114" height="1.5" transform="translate(91.058 116.548)" fill="#e6e6e6"/>
      <rect id="Rectangle_2094" data-name="Rectangle 2094" width="14.661" height="1.5" transform="translate(90.737 121.149)" fill="#e6e6e6"/>
      <rect id="Rectangle_2095" data-name="Rectangle 2095" width="22.128" height="1.5" transform="translate(90.737 125.643)" fill="#e6e6e6"/>
      <rect id="Rectangle_2096" data-name="Rectangle 2096" width="2.444" height="2.444" transform="translate(81.642 107.479)" fill="#e6e6e6"/>
      <rect id="Rectangle_2097" data-name="Rectangle 2097" width="2.444" height="2.444" transform="translate(81.642 111.882)" fill="#fc531c"/>
      <rect id="Rectangle_2098" data-name="Rectangle 2098" width="2.444" height="2.444" transform="translate(81.642 116.076)" fill="#e6e6e6"/>
      <rect id="Rectangle_2099" data-name="Rectangle 2099" width="2.444" height="2.444" transform="translate(81.642 120.677)" fill="#e6e6e6"/>
      <rect id="Rectangle_2100" data-name="Rectangle 2100" width="2.444" height="2.444" transform="translate(81.642 125.171)" fill="#e6e6e6"/>
      <circle id="Ellipse_214" data-name="Ellipse 214" cx="16.714" cy="16.714" r="16.714" transform="translate(84.883 29.708)" fill="#fff"/>
      <ellipse id="Ellipse_215" data-name="Ellipse 215" cx="18.6" cy="3.813" rx="18.6" ry="3.813" transform="translate(148.076 154.088)" fill="#e6e6e6"/>
      <path id="Path_15419" data-name="Path 15419" d="M810.423,529.225l-2.443-.424s-4.993-2.3-5.3-.559,4.462,3.29,4.462,3.29l5.128-.548Z" transform="translate(-663.461 -427.869)" fill="#ffb8b8"/>
      <path id="Path_15420" data-name="Path 15420" d="M650.147,364.2l-3.422,15.583L635.3,381.393l-.438,4.6,14.732.039,7.368-13.461Z" transform="translate(-488.977 -280.507)" fill="#575a89"/>
      <path id="Path_15421" data-name="Path 15421" d="M650.147,364.2l-3.422,15.583L635.3,381.393l-.438,4.6,14.732.039,7.368-13.461Z" transform="translate(-488.977 -280.507)" opacity="0.2"/>
      <path id="Path_15422" data-name="Path 15422" d="M802.318,459.064l-1.743-1.763s-2.728-4.774-3.987-3.529,1.724,5.269,1.724,5.269l4.494,2.53Z" transform="translate(-658.536 -370.855)" fill="#ffb8b8"/>
      <path id="Path_15423" data-name="Path 15423" d="M903.284,388.21l2.146-.523a5.525,5.525,0,0,0,5.423-6.619h0a7.222,7.222,0,0,0-7.213-7.231h0a7.222,7.222,0,0,0-7.231,7.213h0a5.739,5.739,0,0,0,6.875,7.161Z" transform="translate(-735.486 -309.447)" fill="#2f2e41"/>
      <path id="Path_15424" data-name="Path 15424" d="M675.283,488.929l1.747,19.128,3.164,18.776,5.313.007-.685-18.419L682.016,486.1Z" transform="translate(-520.108 -374.401)" fill="#2f2e41"/>
      <path id="Path_15425" data-name="Path 15425" d="M868.837,752.359l-3.545,2.121s-5.668.7-4.608,2.474,13.458.725,13.459.017-.348-4.6-1.057-4.606Z" transform="translate(-708.042 -600.989)" fill="#2f2e41"/>
      <path id="Path_15426" data-name="Path 15426" d="M894.951,572.6s-.1,2.735-2.584,6.982l.338,13.105L905.435,609l-4.609,3.89-15.562-17.729L881.394,573.9l4.965-4.952Z" transform="translate(-724.094 -459.724)" fill="#2f2e41"/>
      <path id="Path_15427" data-name="Path 15427" d="M964.241,743.218s4.249.714,3.539,2.484-2.492,9.914-7.095,8.846c0,0-2.125,0-1.415-1.419a25.631,25.631,0,0,1,1.42-2.478l.006-4.6Z" transform="translate(-783.963 -593.948)" fill="#2f2e41"/>
      <circle id="Ellipse_216" data-name="Ellipse 216" cx="5.313" cy="5.313" r="5.313" transform="translate(160.185 68.496)" fill="#ffb8b8"/>
      <path id="Path_15428" data-name="Path 15428" d="M711.954,336.606l-.008,6.021-5.667-.007L707,336.6Z" transform="translate(-543.982 -259.252)" fill="#ffb8b8"/>
      <path id="Path_15429" data-name="Path 15429" d="M886.058,479.776l-3.516-.588a32.585,32.585,0,0,0-13.484.568l1.59-15.83.207-2.064.444-4.419s-1.533-5.823.717-7.79c2.746-2.4,5.177-4.313,5.177-4.313l5.368.43c3,5.984,2.351,13.5.326,21.607Z" transform="translate(-714.592 -364.519)" fill="#575a89"/>
      <path id="Path_15430" data-name="Path 15430" d="M836.358,450.782l-11.832,10.7-10.239-5.317-2.15,2.631,9.044,7.969a4.251,4.251,0,0,0,4.329.371l11.538-5.584Z" transform="translate(-670.752 -368.712)" fill="#575a89"/>
      <circle id="Ellipse_217" data-name="Ellipse 217" cx="3.428" cy="3.428" r="3.428" transform="translate(172.325 63.04)" fill="#2f2e41"/>
      <path id="Path_15431" data-name="Path 15431" d="M945.291,362.513a3.426,3.426,0,0,1,4.1-3.356,3.426,3.426,0,1,0-2.137,6.457,3.425,3.425,0,0,1-1.965-3.1Z" transform="translate(-772.701 -297.888)" fill="#2f2e41"/>
      <path id="Path_15432" data-name="Path 15432" d="M899.261,380.471l-4.621-.851-3.554,2.227a5.391,5.391,0,0,0-2.483,5.261l3.559-.9.8-2h0a5.83,5.83,0,0,0,2.077,2.017c2.017,1.158,2.484,3.618,2.723,6.272l3.9-2.12,2.484-3.893Z" transform="translate(-729.611 -313.902)" fill="#2f2e41"/>
      <path id="Path_15433" data-name="Path 15433" d="M688.345,390.037l-9.228,9.778.207-2.064Z" transform="translate(-523.061 -300.41)" opacity="0.2"/>
    </g>
  </g>
</svg>
