<svg xmlns="http://www.w3.org/2000/svg" width="44" height="44" viewBox="0 0 44 44">
  <g id="Group_9735" data-name="Group 9735" transform="translate(-309 -443)">
    <circle id="Ellipse_4" data-name="Ellipse 4" cx="22" cy="22" r="22" transform="translate(309 443)" fill="#fc531c" opacity="0.12"/>
    <g id="Group_9694" data-name="Group 9694" transform="translate(0 -66)">
      <g id="Group_9693" data-name="Group 9693">
        <path id="Path_4242" data-name="Path 4242" d="M3.8,16.688a1.76,1.76,0,0,0-.85.217A9.951,9.951,0,0,1,12.77,1.04a.422.422,0,0,0,.167-.826A10.87,10.87,0,0,0,10.789,0,10.79,10.79,0,0,0,2.322,17.476,1.771,1.771,0,1,0,3.8,16.688Zm.656,2.426a.927.927,0,1,1,.272-.656A.921.921,0,0,1,4.451,19.114Zm0,0" transform="translate(320 521.478)" fill="#fc531c"/>
        <path id="Path_4243" data-name="Path 4243" d="M208.418,34.8a1.767,1.767,0,1,0-.623.572,9.951,9.951,0,0,1-9.807,15.869.422.422,0,1,0-.165.827,10.878,10.878,0,0,0,2.127.21A10.79,10.79,0,0,0,208.418,34.8Zm-2.129-.326a.928.928,0,1,1,.656.271A.921.921,0,0,1,206.289,34.477Zm0,0" transform="translate(130.84 490.777)" fill="#fc531c"/>
        <path id="Path_4244" data-name="Path 4244" d="M79.916,88.92a.422.422,0,0,0,.421.421h2.635a.421.421,0,0,0,.421-.421V88.1a6.6,6.6,0,0,0,1.582-.656l.577.577a.421.421,0,0,0,.6,0l1.863-1.864a.422.422,0,0,0,0-.6l-.576-.576a6.6,6.6,0,0,0,.656-1.582h.814a.421.421,0,0,0,.421-.421V80.349a.421.421,0,0,0-.421-.421h-.814a6.6,6.6,0,0,0-.655-1.582l.573-.573a.422.422,0,0,0,0-.6l-1.864-1.863a.421.421,0,0,0-.6,0l-.572.572a6.6,6.6,0,0,0-1.582-.656v-.81A.421.421,0,0,0,82.973,74H80.338a.422.422,0,0,0-.421.421v.81a6.6,6.6,0,0,0-1.582.655l-.572-.572a.422.422,0,0,0-.6,0L75.3,77.177a.421.421,0,0,0,0,.6l.573.573a6.6,6.6,0,0,0-.656,1.582h-.812a.421.421,0,0,0-.421.421v2.635a.421.421,0,0,0,.421.422h.814a6.6,6.6,0,0,0,.656,1.582l-.576.576a.421.421,0,0,0,0,.6l1.863,1.864a.422.422,0,0,0,.3.124h0a.421.421,0,0,0,.3-.123l.577-.577a6.606,6.606,0,0,0,1.582.656ZM78.5,86.561a.422.422,0,0,0-.527.056l-.513.513-1.267-1.268.513-.513a.421.421,0,0,0,.056-.527,5.769,5.769,0,0,1-.8-1.927.422.422,0,0,0-.412-.333h-.724V80.771h.723a.421.421,0,0,0,.412-.333,5.77,5.77,0,0,1,.8-1.927.421.421,0,0,0-.056-.527l-.509-.51,1.268-1.267.509.509a.422.422,0,0,0,.527.056,5.767,5.767,0,0,1,1.927-.8.422.422,0,0,0,.333-.412v-.72h1.792v.72a.421.421,0,0,0,.333.412,5.772,5.772,0,0,1,1.927.8.421.421,0,0,0,.527-.056l.509-.509,1.268,1.267-.509.509a.421.421,0,0,0-.056.527,5.773,5.773,0,0,1,.8,1.927.421.421,0,0,0,.412.333h.724v1.792H87.76a.422.422,0,0,0-.412.333,5.768,5.768,0,0,1-.8,1.927.422.422,0,0,0,.056.527l.513.513L85.851,87.13l-.513-.513a.421.421,0,0,0-.527-.056,5.773,5.773,0,0,1-1.927.8.421.421,0,0,0-.333.412V88.5H80.759v-.727a.422.422,0,0,0-.333-.412,5.769,5.769,0,0,1-1.927-.8Zm0,0" transform="translate(249.134 450.596)" fill="#fc531c"/>
      </g>
      <path id="Path_4245" data-name="Path 4245" d="M180.336,176.854a3.483,3.483,0,1,0-3.483,3.483A3.487,3.487,0,0,0,180.336,176.854Zm-6.122,0a2.64,2.64,0,1,1,2.64,2.64A2.643,2.643,0,0,1,174.214,176.854Zm0,0" transform="translate(153.936 355.413)" fill="#fc531c"/>
      <path id="Path_4246" data-name="Path 4246" d="M338.5,18.652a.422.422,0,1,0-.3-.123A.425.425,0,0,0,338.5,18.652Zm0,0" transform="translate(-3.829 504.419)" fill="#fc531c"/>
      <path id="Path_4247" data-name="Path 4247" d="M154.78,474.359a.422.422,0,1,0,.3.123A.425.425,0,0,0,154.78,474.359Zm0,0" transform="translate(172.147 67.111)" fill="#fc531c"/>
    </g>
  </g>
</svg>
