<svg xmlns="http://www.w3.org/2000/svg" width="44" height="44" viewBox="0 0 44 44">
  <g id="Group_9737" data-name="Group 9737" transform="translate(-309 -557)">
    <g id="Group_177" data-name="Group 177" transform="translate(309 556.668)">
      <circle id="Ellipse_4" data-name="Ellipse 4" cx="22" cy="22" r="22" transform="translate(0 0.332)" fill="#007c40" opacity="0.12"/>
    </g>
    <g id="help_1_" data-name="help (1)" transform="translate(320 567.668)">
      <path id="Path_4248" data-name="Path 4248" d="M22.58,15.281a7.316,7.316,0,0,0-5.345-7.033A8.622,8.622,0,1,0,1.2,13L.032,17.212l4.208-1.164a8.59,8.59,0,0,0,4.008,1.187A7.3,7.3,0,0,0,19,21.565l3.553.983L21.565,19a7.273,7.273,0,0,0,1.015-3.714ZM4.448,14.618l-2.519.7.7-2.519-.159-.248A7.3,7.3,0,1,1,4.7,14.776Zm16.2,6.033-1.869-.517-.25.162a5.978,5.978,0,0,1-8.916-3.11,8.638,8.638,0,0,0,7.57-7.57,5.978,5.978,0,0,1,3.11,8.916l-.162.25Zm0,0" fill="#007c40"/>
      <path id="Path_4249" data-name="Path 4249" d="M180.5,271h1.323v1.323H180.5Zm0,0" transform="translate(-172.54 -259.048)" fill="#007c40"/>
      <path id="Path_4250" data-name="Path 4250" d="M139.469,92.646a1.309,1.309,0,0,1-.431.977l-1.554,1.422v1.614h1.323V95.628l1.124-1.029a2.646,2.646,0,1,0-4.432-1.953h1.323a1.323,1.323,0,1,1,2.646,0Zm0,0" transform="translate(-129.524 -86.031)" fill="#007c40"/>
    </g>
  </g>
</svg>
