<svg xmlns="http://www.w3.org/2000/svg" width="166.477" height="78.065" viewBox="0 0 166.477 78.065">
  <g id="Group_14" data-name="Group 14" transform="translate(-107.523 -168.935)">
    <path id="Rectangle_4" data-name="Rectangle 4" d="M7,0H112a0,0,0,0,1,0,0V21a8,8,0,0,1-8,8H0a0,0,0,0,1,0,0V7A7,7,0,0,1,7,0Z" transform="translate(162 218)" fill="#f5c86c"/>
    <path id="Path_17" data-name="Path 17" d="M.523-10.428H7.66q1.015,3.938,6.583,3.938,3.938,0,5.552-2.553T21.41-16.8v-28.27h8v28.024q0,8.982-3.814,13.32T13.351.615A13.5,13.5,0,0,1,4.307-2.307,11.079,11.079,0,0,1,.523-10.428ZM35.561-16.55q0-7.537,4.353-12.274A14.861,14.861,0,0,1,51.4-33.561q7.506,0,11.659,4.553T67.214-16.55q0,7.875-4.23,12.52T51.4.615Q43.9.615,39.729-4.076T35.561-16.55Zm8,0q0,10.89,7.844,10.89a6.742,6.742,0,0,0,5.706-2.83q2.107-2.83,2.107-8.06,0-10.736-7.813-10.736a6.783,6.783,0,0,0-5.722,2.83Q43.559-21.625,43.559-16.55ZM94.438,0l-9.69-14.919-3.691,3.907V0h-7.69V-45.22l7.69-1.846V-20.3L92.039-32.946H101.3L90.163-20.457,103.575,0ZM137.29-14.12H113.757A8.356,8.356,0,0,0,116.464-8a9.813,9.813,0,0,0,6.706,2.184q5.26,0,8-2.738l2.984,5.875Q130.091.615,122.032.615q-7.537,0-11.92-4.414t-4.384-12.32q0-7.783,4.814-12.612a15.729,15.729,0,0,1,11.551-4.83q7.167,0,11.5,4.276a14.64,14.64,0,0,1,4.337,10.89A21.484,21.484,0,0,1,137.29-14.12ZM114.034-19.9h16.181q-.8-7.229-8-7.229Q115.633-27.132,114.034-19.9Zm49.1-5.875a8.07,8.07,0,0,0-4.522-1.354,6.136,6.136,0,0,0-4.753,2.43,8.826,8.826,0,0,0-2.076,5.937V0h-7.69V-32.946h7.69v3.015a10.925,10.925,0,0,1,8.583-3.63,12.292,12.292,0,0,1,6.029,1.2Z" transform="translate(107 216)" fill="#414141"/>
    <path id="Path_5" data-name="Path 5" d="M5.262,19.329a5.943,5.943,0,0,0,4.125-1.957h.079l.106,1.639h1V0H9.413V5.236l.053,2.327A5.864,5.864,0,0,0,5.632,6C2.618,6,0,8.594,0,12.692,0,16.976,2.062,19.329,5.262,19.329ZM5.421,18.3c-2.7,0-4.178-2.248-4.178-5.606,0-3.2,1.93-5.659,4.469-5.659a5.368,5.368,0,0,1,3.7,1.639v7.536C8.065,17.557,6.822,18.3,5.421,18.3Zm10.022.714h1.163V6.32H15.442ZM16.05,3.252a1,1,0,0,0,1-1.084,1.005,1.005,0,1,0-2.01,0A.994.994,0,0,0,16.05,3.252Zm8.514,16.077c2.75,0,4.284-1.666,4.284-3.57,0-2.486-2.168-3.147-4.151-3.887-1.507-.555-2.909-1.111-2.909-2.565,0-1.163.9-2.3,2.882-2.3a4.923,4.923,0,0,1,3.041,1.137l.635-.82A5.9,5.9,0,0,0,24.7,6c-2.644,0-4.072,1.534-4.072,3.385,0,2.168,2.01,2.935,3.94,3.623,1.454.529,3.094,1.216,3.094,2.8,0,1.349-1.031,2.512-3.014,2.512A5.888,5.888,0,0,1,20.6,16.711l-.687.873A7.349,7.349,0,0,0,24.565,19.329Zm12.348,0a6.1,6.1,0,0,0,4.046-1.666l-.608-.82A5.1,5.1,0,0,1,36.966,18.3c-2.776,0-4.6-2.274-4.6-5.606,0-3.358,2.01-5.659,4.6-5.659A4.328,4.328,0,0,1,39.98,8.382l.687-.82A5.255,5.255,0,0,0,36.939,6c-3.094,0-5.791,2.433-5.791,6.69C31.149,16.9,33.634,19.329,36.913,19.329Zm11.344,0c3.067,0,5.711-2.433,5.711-6.637,0-4.257-2.644-6.69-5.711-6.69-3.041,0-5.685,2.433-5.685,6.69C42.572,16.9,45.216,19.329,48.257,19.329Zm0-1.031c-2.565,0-4.469-2.274-4.469-5.606,0-3.358,1.9-5.659,4.469-5.659s4.5,2.3,4.5,5.659C52.752,16.024,50.821,18.3,48.257,18.3Zm13.168,1.031c1.745,0,3.067-.978,4.31-2.433h.053l.132,2.115H66.9V6.32H65.735v9.36c-1.481,1.8-2.591,2.591-4.1,2.591-2.036,0-2.882-1.269-2.882-3.966V6.32H57.591v8.144C57.591,17.743,58.807,19.329,61.425,19.329Zm10.339-.317h1.163V9.44c1.56-1.587,2.644-2.38,4.151-2.38,2.062,0,2.909,1.269,2.909,3.966v7.985H81.15V10.868C81.15,7.589,79.934,6,77.316,6c-1.745,0-3.067.978-4.363,2.274h-.079L72.768,6.32h-1Zm17.531.317a7.277,7.277,0,0,0,2.062-.476L91.04,17.9a4.251,4.251,0,0,1-1.587.4c-1.745,0-2.142-1.084-2.142-2.7V7.324h3.675v-1H87.311V2.644h-1L86.148,6.32l-2.01.106v.9h1.983v8.171C86.121,17.769,86.835,19.329,89.294,19.329Z" transform="translate(172.059 220.764)" fill="#fff"/>
  </g>
</svg>
