<svg xmlns="http://www.w3.org/2000/svg" xmlns:xlink="http://www.w3.org/1999/xlink" width="200" height="200" viewBox="0 0 200 200">
  <defs>
    <clipPath id="clip-path">
      <rect id="Rectangle_3869" data-name="Rectangle 3869" width="200" height="200" transform="translate(176 340)"/>
    </clipPath>
  </defs>
  <g id="Mask_Group_874" data-name="Mask Group 874" transform="translate(-176 -340)" clip-path="url(#clip-path)">
    <g id="layer1" transform="translate(175.997 340)">
      <path id="path52" d="M102.292,1320.619a10.027,10.027,0,0,0-9.9,10.163v80.381a10.011,10.011,0,1,0,20.021,0v-80.381a10.023,10.023,0,0,0-10.118-10.163Zm58.345,20.15c-.326-.009-.652,0-.977.02a10.055,10.055,0,0,0-5.547,17.735A80.447,80.447,0,0,1,182.4,1419.99c0,44.6-35.651,80.538-79.949,80.538s-80.027-35.942-80.027-80.538a80.357,80.357,0,0,1,27.971-61.172,10.077,10.077,0,0,0,1.114-14.164,9.973,9.973,0,0,0-14.1-1.119,100.782,100.782,0,0,0-35,76.455c0,55.434,44.923,100.629,100.049,100.629S202.4,1475.426,202.4,1419.99a100.707,100.707,0,0,0-35.355-76.749,9.976,9.976,0,0,0-6.407-2.474Z" transform="translate(-2.4 -1320.619)"/>
    </g>
  </g>
</svg>
