<svg xmlns="http://www.w3.org/2000/svg" width="44" height="44" viewBox="0 0 44 44">
  <g id="Group_9734" data-name="Group 9734" transform="translate(-309 -382)">
    <g id="Group_9695" data-name="Group 9695" transform="translate(309 381.891)">
      <circle id="Ellipse_4" data-name="Ellipse 4" cx="22" cy="22" r="22" transform="translate(0 0.109)" fill="#101010" opacity="0.12"/>
    </g>
    <g id="vip_1_" data-name="vip (1)" transform="translate(318.23 392.036)">
      <path id="Path_15354" data-name="Path 15354" d="M31.065,25.757c.381,1.169,1.344,2.3,1.344,3.6s-.964,2.432-1.344,3.6c-.4,1.216-.3,2.7-1.03,3.706s-2.187,1.379-3.209,2.121-1.791,2-3.007,2.4c-1.173.381-2.545-.171-3.842-.171s-2.669.552-3.842.171c-1.216-.392-2-1.659-3.007-2.4s-2.467-1.1-3.209-2.121-.633-2.49-1.03-3.706c-.381-1.169-1.344-2.3-1.344-3.6s.964-2.432,1.344-3.6c.4-1.216.3-2.7,1.03-3.706s2.187-1.379,3.209-2.121,1.791-2,3.007-2.4c1.173-.381,2.545.171,3.842.171s2.669-.552,3.842-.171c1.216.392,2,1.659,3.007,2.4s2.467,1.1,3.209,2.121S30.668,24.541,31.065,25.757Z" transform="translate(-7.167 -17)" fill="#cecece"/>
      <path id="Path_15355" data-name="Path 15355" d="M14.582,36.666c-.734-1.01-.633-2.49-1.03-3.706-.381-1.169-1.344-2.3-1.344-3.6s.964-2.432,1.344-3.6c.4-1.216.3-2.7,1.03-3.706s2.187-1.379,3.209-2.121c.909-.664,1.635-1.75,2.656-2.248-.157.013-.313.022-.469.022-1.3,0-2.669-.552-3.842-.171-1.216.392-2,1.659-3.007,2.4s-2.467,1.1-3.209,2.121-.633,2.49-1.03,3.706c-.381,1.169-1.344,2.3-1.344,3.6s.964,2.432,1.344,3.6c.4,1.216.3,2.7,1.03,3.706s2.187,1.379,3.209,2.121,1.791,2,3.007,2.4c1.173.381,2.545-.171,3.842-.171.155,0,.312.009.469.022-1.021-.5-1.747-1.584-2.656-2.248C16.769,38.045,15.324,37.688,14.582,36.666Z" transform="translate(-7.168 -17)" fill="#bbb"/>
      <g id="Group_9688" data-name="Group 9688">
        <path id="Path_15356" data-name="Path 15356" d="M133.739,19.277a8.611,8.611,0,0,1-.551-1.219,9.15,9.15,0,0,1-.291-1.372,5.512,5.512,0,0,0-.792-2.439,5.508,5.508,0,0,0-2.093-1.517,8.962,8.962,0,0,1-1.2-.687,8.835,8.835,0,0,1-1.006-.917A5.485,5.485,0,0,0,125.7,9.591a5.486,5.486,0,0,0-2.542,0,6.778,6.778,0,0,1-2.834,0,5.486,5.486,0,0,0-2.541,0,5.484,5.484,0,0,0-2.108,1.535,8.84,8.84,0,0,1-1.006.917l.445.61a9.525,9.525,0,0,0,1.1-.994,4.863,4.863,0,0,1,1.8-1.349,4.874,4.874,0,0,1,2.192.031,7.483,7.483,0,0,0,3.067,0,4.875,4.875,0,0,1,2.193-.03,4.863,4.863,0,0,1,1.8,1.348,9.52,9.52,0,0,0,1.1.995,9.647,9.647,0,0,0,1.3.75,4.89,4.89,0,0,1,1.824,1.288,4.9,4.9,0,0,1,.658,2.115,9.854,9.854,0,0,0,.318,1.486,9.3,9.3,0,0,0,.6,1.33,4.906,4.906,0,0,1,.729,2.155,4.906,4.906,0,0,1-.729,2.155,9.291,9.291,0,0,0-.6,1.33,9.852,9.852,0,0,0-.318,1.486,4.9,4.9,0,0,1-.658,2.115,4.89,4.89,0,0,1-1.824,1.288,9.654,9.654,0,0,0-1.3.75l.444.611a8.957,8.957,0,0,1,1.2-.688,5.506,5.506,0,0,0,2.092-1.517,5.51,5.51,0,0,0,.792-2.439,9.152,9.152,0,0,1,.291-1.372,8.613,8.613,0,0,1,.551-1.219,5.533,5.533,0,0,0,.812-2.5A5.533,5.533,0,0,0,133.739,19.277Z" transform="translate(-108.931 -9.438)" fill="#231f20"/>
        <path id="Path_15357" data-name="Path 15357" d="M18.341,91.182a4.863,4.863,0,0,1-1.8,1.349,4.873,4.873,0,0,1-2.192-.031,10.022,10.022,0,0,0-1.534-.159,10.022,10.022,0,0,0-1.534.159,4.874,4.874,0,0,1-2.193.03,4.862,4.862,0,0,1-1.8-1.348,9.52,9.52,0,0,0-1.1-.995,9.646,9.646,0,0,0-1.3-.75A4.89,4.89,0,0,1,3.057,88.15,4.9,4.9,0,0,1,2.4,86.035a9.848,9.848,0,0,0-.318-1.486,9.294,9.294,0,0,0-.6-1.33,4.906,4.906,0,0,1-.729-2.155,4.906,4.906,0,0,1,.729-2.155,9.293,9.293,0,0,0,.6-1.33A9.846,9.846,0,0,0,2.4,76.093a4.9,4.9,0,0,1,.658-2.115A4.89,4.89,0,0,1,4.881,72.69l.333-.171-.349-.67-.327.168a5.506,5.506,0,0,0-2.092,1.517,5.511,5.511,0,0,0-.792,2.439,9.148,9.148,0,0,1-.291,1.372,8.62,8.62,0,0,1-.551,1.219A5.533,5.533,0,0,0,0,81.064a5.532,5.532,0,0,0,.812,2.5,8.618,8.618,0,0,1,.551,1.219,9.15,9.15,0,0,1,.291,1.372,5.511,5.511,0,0,0,.792,2.439,5.507,5.507,0,0,0,2.093,1.517,8.963,8.963,0,0,1,1.2.687,8.827,8.827,0,0,1,1.006.917,5.485,5.485,0,0,0,2.107,1.535,5.487,5.487,0,0,0,2.542,0,9.46,9.46,0,0,1,1.417-.15,9.46,9.46,0,0,1,1.417.15,9.76,9.76,0,0,0,1.488.155,3.385,3.385,0,0,0,1.053-.152,5.485,5.485,0,0,0,2.108-1.535c.093-.094.187-.188.281-.28l-.529-.538C18.532,90.99,18.436,91.086,18.341,91.182Z" transform="translate(0 -68.726)" fill="#231f20"/>
      </g>
      <g id="Group_9689" data-name="Group 9689" transform="translate(1.931 1.859)">
        <rect id="Rectangle_1529" data-name="Rectangle 1529" width="0.777" height="0.755" transform="translate(0 10.101)" fill="#fff"/>
        <path id="Path_15358" data-name="Path 15358" d="M124.614,191.741l2.029,6.086h1.321l2.029-6.086-.716-.239-1.856,5.57h-.233l-1.857-5.57Z" transform="translate(-120.31 -184.251)"/>
        <rect id="Rectangle_1530" data-name="Rectangle 1530" width="0.755" height="6.216" transform="translate(11.278 7.371)"/>
        <path id="Path_15359" data-name="Path 15359" d="M306.291,197.97a.75.75,0,0,0,.766-.766v-2.331a.75.75,0,0,0-.766-.766h-3.486v6.205h.755V197.97Zm-2.731-3.108h2.731l.011,0s0,0,0,.008V197.2l0,.011H303.56v-2.353Z" transform="translate(-289.584 -186.725)"/>
        <rect id="Rectangle_1531" data-name="Rectangle 1531" width="0.777" height="0.755" transform="translate(7.382)" fill="#fff"/>
        <rect id="Rectangle_1532" data-name="Rectangle 1532" width="0.777" height="0.755" transform="translate(13.598)" fill="#fff"/>
        <rect id="Rectangle_1533" data-name="Rectangle 1533" width="0.777" height="0.755" transform="translate(7.382 20.203)" fill="#fff"/>
      </g>
      <g id="Group_9690" data-name="Group 9690" transform="translate(3.874 5.744)">
        <rect id="Rectangle_1534" data-name="Rectangle 1534" width="0.777" height="0.755" transform="translate(0 12.432)" fill="#231f20"/>
        <rect id="Rectangle_1535" data-name="Rectangle 1535" width="0.777" height="0.755" transform="translate(17.095 12.432)" fill="#231f20"/>
        <rect id="Rectangle_1536" data-name="Rectangle 1536" width="0.777" height="0.755" fill="#231f20"/>
      </g>
      <rect id="Rectangle_1537" data-name="Rectangle 1537" width="0.777" height="0.755" transform="translate(22.911 11.96)" fill="#fff"/>
      <rect id="Rectangle_1538" data-name="Rectangle 1538" width="0.777" height="0.755" transform="translate(20.969 5.744)" fill="#231f20"/>
      <rect id="Rectangle_1539" data-name="Rectangle 1539" width="0.777" height="0.755" transform="translate(15.53 22.062)" fill="#fff"/>
      <g id="Group_9691" data-name="Group 9691" transform="translate(6.205 7.298)">
        <rect id="Rectangle_1540" data-name="Rectangle 1540" width="9.713" height="0.755" transform="translate(3.496 0)" fill="#231f20"/>
        <rect id="Rectangle_1541" data-name="Rectangle 1541" width="2.331" height="0.755" transform="translate(0 0)" fill="#231f20"/>
        <rect id="Rectangle_1542" data-name="Rectangle 1542" width="13.21" height="0.755" transform="translate(0 9.324)" fill="#231f20"/>
      </g>
    </g>
  </g>
</svg>
